<svg xmlns="http://www.w3.org/2000/svg" xmlns:xlink="http://www.w3.org/1999/xlink" width="378" zoomAndPan="magnify" viewBox="0 0 282.96 283.499989" height="378" preserveAspectRatio="xMidYMid meet" version="1.0"><defs><clipPath id="6f557c8d7d"><path d="M 0.230469 177 L 50 177 L 50 259 L 0.230469 259 Z M 0.230469 177 " clip-rule="nonzero"/></clipPath><clipPath id="2ff57ca7f7"><path d="M 40 197 L 222 197 L 222 279.40625 L 40 279.40625 Z M 40 197 " clip-rule="nonzero"/></clipPath><clipPath id="fb495011b9"><path d="M 234 25 L 282.691406 25 L 282.691406 107 L 234 107 Z M 234 25 " clip-rule="nonzero"/></clipPath></defs><g clip-path="url(#6f557c8d7d)"><path fill="#daa748" d="M 44.71875 258.949219 L 4.648438 258.949219 C 2.207031 258.949219 0.230469 256.96875 0.230469 254.527344 L 0.230469 181.765625 C 0.230469 179.324219 2.207031 177.34375 4.648438 177.34375 L 44.71875 177.34375 C 47.160156 177.34375 49.140625 179.324219 49.140625 181.765625 L 49.140625 254.527344 C 49.140625 256.96875 47.160156 258.949219 44.71875 258.949219 Z M 9.070312 250.105469 L 40.296875 250.105469 L 40.296875 186.1875 L 9.070312 186.1875 Z M 9.070312 250.105469 " fill-opacity="1" fill-rule="nonzero"/></g><g clip-path="url(#2ff57ca7f7)"><path fill="#daa748" d="M 124.484375 279.035156 C 121.605469 279.035156 118.714844 278.527344 115.949219 277.496094 L 43.152344 249.9375 C 40.867188 249.070312 39.71875 246.519531 40.582031 244.238281 C 41.445312 241.953125 44 240.800781 46.28125 241.667969 L 119.054688 269.21875 C 123.347656 270.816406 128.121094 270.441406 132.136719 268.179688 L 208.394531 221.015625 C 208.4375 220.988281 208.484375 220.960938 208.53125 220.9375 C 210.421875 219.859375 211.738281 218.097656 212.238281 215.976562 C 212.734375 213.855469 212.339844 211.691406 211.125 209.882812 C 209.683594 207.742188 207.28125 206.464844 204.699219 206.464844 C 203.558594 206.464844 202.449219 206.714844 201.40625 207.207031 L 158.523438 227.382812 C 156.316406 228.425781 153.679688 227.476562 152.640625 225.265625 C 151.601562 223.058594 152.546875 220.421875 154.757812 219.382812 L 197.640625 199.203125 C 199.871094 198.15625 202.246094 197.621094 204.699219 197.621094 C 210.230469 197.621094 215.375 200.359375 218.460938 204.949219 C 221.027344 208.765625 221.894531 213.523438 220.84375 218 C 219.800781 222.445312 216.933594 226.296875 212.980469 228.578125 L 136.710938 275.746094 C 136.664062 275.773438 136.621094 275.800781 136.574219 275.828125 C 132.835938 277.957031 128.671875 279.035156 124.484375 279.035156 Z M 124.484375 279.035156 " fill-opacity="1" fill-rule="nonzero"/></g><path fill="#daa748" d="M 100.042969 237.414062 C 98.113281 237.414062 96.339844 236.136719 95.789062 234.1875 C 95.128906 231.839844 96.496094 229.394531 98.847656 228.734375 C 105.875 226.753906 113.144531 225.75 120.445312 225.75 L 145.542969 225.75 C 147.6875 225.75 149.710938 224.914062 151.234375 223.390625 C 151.828125 222.796875 152.324219 222.113281 152.703125 221.371094 C 153.308594 220.191406 153.5625 219.257812 153.585938 218.140625 C 153.625 216.035156 152.808594 214.019531 151.289062 212.46875 C 149.710938 210.859375 147.527344 209.9375 145.296875 209.9375 L 110.171875 209.9375 C 107.15625 209.9375 104.140625 209.226562 101.449219 207.875 L 73.425781 193.835938 C 71.957031 193.097656 70.3125 192.707031 68.667969 192.707031 L 44.71875 192.707031 C 42.277344 192.707031 40.296875 190.730469 40.296875 188.289062 C 40.296875 185.847656 42.277344 183.867188 44.71875 183.867188 L 68.667969 183.867188 C 71.679688 183.867188 74.695312 184.578125 77.390625 185.929688 L 105.414062 199.972656 C 106.882812 200.707031 108.527344 201.097656 110.171875 201.097656 L 145.296875 201.097656 C 149.886719 201.097656 154.371094 202.984375 157.601562 206.277344 C 160.800781 209.539062 162.515625 213.8125 162.425781 218.308594 C 162.378906 220.78125 161.789062 223.03125 160.574219 225.402344 C 159.78125 226.957031 158.742188 228.382812 157.492188 229.640625 C 154.289062 232.835938 150.046875 234.59375 145.542969 234.59375 L 120.445312 234.59375 C 113.953125 234.59375 107.492188 235.484375 101.246094 237.246094 C 100.84375 237.359375 100.441406 237.414062 100.042969 237.414062 Z M 100.042969 237.414062 " fill-opacity="1" fill-rule="nonzero"/><g clip-path="url(#fb495011b9)"><path fill="#daa748" d="M 278.761719 106.605469 L 238.480469 106.605469 C 236.035156 106.605469 234.058594 104.625 234.058594 102.183594 L 234.058594 29.425781 C 234.058594 26.984375 236.035156 25.003906 238.480469 25.003906 L 278.761719 25.003906 C 281.203125 25.003906 283.183594 26.984375 283.183594 29.425781 L 283.183594 102.183594 C 283.183594 104.625 281.203125 106.605469 278.761719 106.605469 Z M 242.898438 97.765625 L 274.339844 97.765625 L 274.339844 33.84375 L 242.898438 33.84375 Z M 242.898438 97.765625 " fill-opacity="1" fill-rule="nonzero"/></g><path fill="#daa748" d="M 78.496094 86.332031 C 72.964844 86.332031 67.824219 83.589844 64.738281 79.003906 C 62.167969 75.1875 61.300781 70.429688 62.351562 65.953125 C 63.398438 61.503906 66.261719 57.65625 70.214844 55.375 L 146.484375 8.207031 C 146.53125 8.175781 146.574219 8.148438 146.621094 8.125 C 152.933594 4.535156 160.449219 3.925781 167.25 6.457031 L 240.046875 34.015625 C 242.328125 34.878906 243.480469 37.429688 242.613281 39.714844 C 241.75 42 239.199219 43.148438 236.914062 42.285156 L 164.140625 14.734375 C 159.847656 13.136719 155.078125 13.511719 151.0625 15.769531 L 74.804688 62.933594 C 74.757812 62.960938 74.710938 62.992188 74.664062 63.015625 C 72.773438 64.09375 71.457031 65.855469 70.960938 67.972656 C 70.460938 70.09375 70.855469 72.257812 72.074219 74.066406 C 73.511719 76.210938 75.914062 77.488281 78.496094 77.488281 C 79.636719 77.488281 80.746094 77.238281 81.789062 76.746094 L 124.671875 56.566406 C 126.882812 55.527344 129.515625 56.476562 130.554688 58.683594 C 131.59375 60.894531 130.648438 63.527344 128.4375 64.566406 L 85.554688 84.746094 C 83.324219 85.796875 80.949219 86.332031 78.496094 86.332031 Z M 78.496094 86.332031 " fill-opacity="1" fill-rule="nonzero"/><path fill="#daa748" d="M 238.480469 100.085938 L 214.527344 100.085938 C 211.515625 100.085938 208.5 99.371094 205.808594 98.023438 L 177.785156 83.980469 C 176.316406 83.242188 174.667969 82.855469 173.027344 82.855469 L 137.898438 82.855469 C 133.308594 82.855469 128.824219 80.964844 125.597656 77.671875 C 122.398438 74.410156 120.683594 70.140625 120.769531 65.640625 C 120.820312 63.171875 121.40625 60.917969 122.621094 58.550781 C 123.417969 56.996094 124.457031 55.566406 125.707031 54.3125 C 128.910156 51.113281 133.148438 49.359375 137.652344 49.359375 L 162.75 49.359375 C 169.242188 49.359375 175.703125 48.464844 181.953125 46.707031 C 184.304688 46.042969 186.746094 47.414062 187.40625 49.761719 C 188.070312 52.113281 186.699219 54.554688 184.351562 55.214844 C 177.320312 57.195312 170.054688 58.199219 162.75 58.199219 L 137.652344 58.199219 C 135.507812 58.199219 133.484375 59.039062 131.960938 60.558594 C 131.371094 61.15625 130.871094 61.839844 130.492188 62.582031 C 129.886719 63.757812 129.632812 64.695312 129.613281 65.8125 C 129.570312 67.917969 130.386719 69.929688 131.910156 71.480469 C 133.484375 73.089844 135.667969 74.011719 137.898438 74.011719 L 173.027344 74.011719 C 176.039062 74.011719 179.054688 74.726562 181.746094 76.074219 L 209.769531 90.117188 C 211.238281 90.855469 212.886719 91.242188 214.53125 91.242188 L 238.480469 91.242188 C 240.921875 91.242188 242.902344 93.222656 242.902344 95.664062 C 242.902344 98.105469 240.921875 100.085938 238.480469 100.085938 Z M 238.480469 100.085938 " fill-opacity="1" fill-rule="nonzero"/><path fill="#daa748" d="M 135.242188 192.722656 C 134.070312 192.722656 132.945312 192.257812 132.117188 191.429688 L 90.140625 149.449219 C 83.695312 143.007812 80.148438 134.441406 80.148438 125.332031 C 80.148438 116.222656 83.695312 107.660156 90.140625 101.21875 C 96.582031 94.773438 105.144531 91.226562 114.253906 91.226562 C 121.960938 91.226562 129.273438 93.765625 135.242188 98.445312 C 141.214844 93.765625 148.527344 91.226562 156.234375 91.226562 C 165.34375 91.226562 173.90625 94.773438 180.351562 101.21875 C 186.792969 107.660156 190.339844 116.222656 190.339844 125.332031 C 190.339844 134.441406 186.792969 143.007812 180.351562 149.449219 L 138.371094 191.429688 C 137.542969 192.257812 136.417969 192.722656 135.242188 192.722656 Z M 114.253906 100.070312 C 107.507812 100.070312 101.164062 102.699219 96.390625 107.46875 C 86.542969 117.320312 86.542969 133.347656 96.390625 143.195312 L 135.246094 182.050781 L 174.097656 143.195312 C 178.871094 138.425781 181.496094 132.082031 181.496094 125.332031 C 181.496094 118.585938 178.871094 112.242188 174.097656 107.46875 C 169.324219 102.699219 162.980469 100.070312 156.234375 100.070312 C 149.484375 100.070312 143.140625 102.699219 138.371094 107.46875 C 136.644531 109.195312 133.84375 109.195312 132.117188 107.46875 C 127.347656 102.699219 121.003906 100.070312 114.253906 100.070312 Z M 114.253906 100.070312 " fill-opacity="1" fill-rule="nonzero"/></svg>