<svg xmlns="http://www.w3.org/2000/svg" xmlns:xlink="http://www.w3.org/1999/xlink" width="378" zoomAndPan="magnify" viewBox="0 0 282.96 283.499989" height="378" preserveAspectRatio="xMidYMid meet" version="1.0"><defs><clipPath id="a6ae9c8ed8"><path d="M 142 116 L 254.625 116 L 254.625 245 L 142 245 Z M 142 116 " clip-rule="nonzero"/></clipPath><clipPath id="c221915697"><path d="M 28.527344 0 L 218 0 L 218 278.507812 L 28.527344 278.507812 Z M 28.527344 0 " clip-rule="nonzero"/></clipPath></defs><path fill="#daa748" d="M 195.859375 132.421875 C 194.875 132.167969 193.867188 131.964844 192.855469 131.820312 C 191.292969 131.597656 189.839844 132.683594 189.617188 134.246094 C 189.507812 135 189.699219 135.753906 190.15625 136.367188 C 190.613281 136.980469 191.285156 137.375 192.039062 137.484375 C 192.84375 137.601562 193.648438 137.761719 194.429688 137.960938 C 194.664062 138.023438 194.90625 138.054688 195.144531 138.054688 C 195.238281 138.054688 195.328125 138.046875 195.421875 138.039062 C 196.613281 137.925781 197.617188 137.066406 197.914062 135.90625 C 198.105469 135.164062 197.996094 134.394531 197.609375 133.738281 C 197.21875 133.078125 196.597656 132.613281 195.859375 132.421875 Z M 195.859375 132.421875 " fill-opacity="1" fill-rule="nonzero"/><path fill="#daa748" d="M 206.789062 138.113281 C 205.496094 137.003906 203.519531 137.289062 202.566406 138.703125 C 201.757812 139.902344 201.96875 141.519531 203.066406 142.460938 C 204.25 143.480469 205.320312 144.625 206.269531 145.890625 C 209.714844 150.484375 211.144531 156.140625 210.300781 161.8125 C 210.066406 163.375 211.148438 164.832031 212.710938 165.066406 C 212.851562 165.085938 212.992188 165.097656 213.132812 165.097656 C 213.226562 165.097656 213.316406 165.089844 213.410156 165.082031 C 214.71875 164.957031 215.765625 163.957031 215.960938 162.65625 C 217.03125 155.457031 215.214844 148.285156 210.847656 142.457031 C 209.648438 140.855469 208.289062 139.402344 206.789062 138.113281 Z M 206.789062 138.113281 " fill-opacity="1" fill-rule="nonzero"/><g clip-path="url(#a6ae9c8ed8)"><path fill="#daa748" d="M 253.609375 229.511719 L 224.203125 192.988281 C 222.804688 191.25 220.300781 190.933594 218.5 192.265625 L 216.320312 193.878906 L 215.335938 192.566406 C 219.042969 189.417969 222.171875 185.714844 224.636719 181.546875 C 227.515625 176.6875 229.394531 171.386719 230.226562 165.792969 C 231.0625 160.195312 230.804688 154.589844 229.464844 149.125 C 228.074219 143.464844 225.582031 138.207031 222.050781 133.5 C 218.523438 128.792969 214.167969 124.917969 209.105469 121.976562 C 204.21875 119.136719 198.882812 117.285156 193.25 116.476562 C 187.621094 115.667969 181.96875 115.941406 176.460938 117.285156 C 170.753906 118.679688 165.453125 121.167969 160.703125 124.683594 C 155.949219 128.199219 152.027344 132.53125 149.050781 137.566406 C 146.175781 142.421875 144.292969 147.722656 143.460938 153.316406 C 142.628906 158.914062 142.882812 164.519531 144.226562 169.984375 C 145.613281 175.644531 148.105469 180.902344 151.636719 185.609375 C 155.167969 190.316406 159.519531 194.191406 164.582031 197.132812 C 169.46875 199.972656 174.804688 201.820312 180.4375 202.632812 C 185.273438 203.324219 190.140625 203.222656 194.90625 202.324219 C 195.679688 202.179688 196.460938 202.007812 197.226562 201.820312 C 201.957031 200.667969 206.429688 198.75 210.53125 196.117188 L 211.511719 197.429688 L 209.34375 199.035156 C 207.535156 200.371094 207.125 202.855469 208.402344 204.691406 L 235.214844 243.128906 C 235.988281 244.238281 237.265625 244.894531 238.613281 244.894531 C 238.75 244.894531 238.882812 244.886719 239.019531 244.875 C 239.144531 244.863281 239.269531 244.84375 239.390625 244.820312 C 239.769531 244.75 240.132812 244.625 240.476562 244.453125 C 241.894531 243.746094 244.671875 242.257812 247.363281 240.265625 C 250.054688 238.277344 252.285156 236.058594 253.375 234.914062 C 254.792969 233.425781 254.890625 231.105469 253.609375 229.511719 Z M 209.425781 189.652344 C 204.738281 193.117188 199.492188 195.417969 193.835938 196.484375 C 189.71875 197.257812 185.503906 197.34375 181.304688 196.742188 C 171.296875 195.304688 162.464844 190.085938 156.433594 182.042969 C 150.40625 174.003906 147.902344 164.109375 149.378906 154.179688 C 150.859375 144.246094 156.144531 135.464844 164.269531 129.457031 C 168.953125 125.992188 174.195312 123.695312 179.855469 122.628906 C 180.957031 122.417969 182.085938 122.257812 183.207031 122.152344 C 184.421875 122.03125 185.648438 121.972656 186.875 121.972656 C 188.710938 121.972656 190.554688 122.105469 192.386719 122.367188 C 202.394531 123.804688 211.226562 129.027344 217.257812 137.066406 C 223.285156 145.105469 225.792969 155.003906 224.3125 164.933594 C 222.832031 174.867188 217.546875 183.644531 209.425781 189.652344 Z M 243.800781 235.496094 C 242.164062 236.707031 240.476562 237.710938 239.207031 238.402344 L 214.339844 202.75 L 220.640625 198.089844 L 247.914062 231.964844 C 246.878906 232.972656 245.433594 234.289062 243.800781 235.496094 Z M 243.800781 235.496094 " fill-opacity="1" fill-rule="nonzero"/></g><path fill="#daa748" d="M 81.996094 95.023438 C 90.609375 93.710938 103.5625 96.503906 119.589844 100.289062 L 119.671875 100.308594 C 120.484375 100.507812 121.566406 100.734375 122.75 100.722656 C 123.230469 100.714844 123.742188 100.671875 124.273438 100.59375 C 125.003906 100.480469 125.605469 100.328125 125.925781 100.246094 L 126.039062 100.214844 C 134.429688 98.15625 142.527344 96.21875 149.394531 95.171875 C 162.308594 93.207031 169.367188 94.632812 173 99.945312 C 173.675781 100.933594 174.28125 101.988281 174.8125 103.09375 C 175.5 104.519531 177.136719 105.210938 178.625 104.6875 C 180.363281 104.078125 181.191406 102.09375 180.394531 100.4375 C 179.726562 99.039062 178.960938 97.710938 178.105469 96.457031 C 175.328125 92.394531 171.175781 89.796875 165.765625 88.738281 C 161.234375 87.851562 155.738281 87.953125 148.464844 89.058594 C 141.34375 90.144531 133.09375 92.117188 124.5625 94.210938 C 124.519531 94.222656 124.460938 94.238281 124.394531 94.253906 C 124.160156 94.316406 123.765625 94.417969 123.34375 94.480469 C 123.097656 94.519531 122.875 94.539062 122.683594 94.539062 C 122.195312 94.542969 121.605469 94.417969 121.148438 94.308594 L 121.007812 94.273438 C 107.175781 91.003906 95.878906 88.507812 86.855469 88.507812 C 84.75 88.507812 82.855469 88.640625 81.066406 88.914062 C 74.820312 89.863281 70.316406 92.523438 67.296875 97.042969 C 62.273438 104.558594 60.652344 114.425781 62.601562 125.582031 C 64.277344 135.15625 68.640625 145.433594 75.226562 155.300781 L 75.375 155.523438 L 75.296875 155.773438 C 73.542969 161.507812 73.097656 169.371094 72.984375 173.546875 C 72.773438 181.511719 73.339844 189.316406 74.542969 194.957031 C 76.632812 204.75 80.875 215.109375 86.1875 223.371094 C 88.492188 226.960938 90.808594 229.886719 93.066406 232.058594 C 96.394531 235.265625 99.675781 236.886719 102.828125 236.886719 C 102.84375 236.886719 102.859375 236.886719 102.875 236.886719 C 103.242188 236.886719 103.609375 236.859375 103.960938 236.804688 C 106.164062 236.46875 107.945312 235.222656 109.253906 233.109375 C 110.308594 231.40625 110.824219 229.535156 111.164062 228.296875 C 111.890625 225.667969 112.554688 222.265625 113.324219 218.324219 C 113.550781 217.160156 113.832031 215.324219 114.183594 212.992188 L 114.183594 212.976562 C 114.992188 207.644531 116.210938 199.585938 117.90625 192.628906 C 120.082031 183.707031 122.011719 180.996094 122.742188 180.246094 C 122.84375 180.136719 122.984375 180.078125 123.136719 180.074219 C 123.285156 180.070312 123.429688 180.132812 123.535156 180.238281 C 124.285156 180.984375 126.285156 183.691406 128.628906 192.730469 C 130.445312 199.753906 131.785156 207.816406 132.671875 213.152344 L 132.675781 213.195312 C 133.039062 215.382812 133.328125 217.109375 133.554688 218.21875 L 133.5625 218.253906 C 134.371094 222.171875 135.070312 225.550781 135.820312 228.167969 C 136.175781 229.402344 136.710938 231.265625 137.769531 232.933594 C 139.296875 235.34375 141.566406 236.667969 144.160156 236.667969 L 144.203125 236.667969 C 144.640625 236.667969 145.085938 236.632812 145.527344 236.566406 L 145.582031 236.558594 C 147.980469 236.195312 150.46875 234.878906 152.976562 232.644531 C 155.53125 230.375 158.144531 227.121094 160.746094 222.976562 C 162.652344 219.941406 164.414062 216.636719 165.996094 213.128906 C 166.714844 211.53125 165.972656 209.65625 164.351562 208.992188 C 162.808594 208.359375 161.046875 209.070312 160.359375 210.589844 C 158.894531 213.835938 157.269531 216.886719 155.507812 219.691406 C 153.585938 222.75 151.59375 225.347656 149.75 227.199219 C 147.820312 229.132812 146.105469 230.226562 144.648438 230.449219 C 144.484375 230.472656 144.324219 230.484375 144.164062 230.488281 C 143.71875 230.488281 143.378906 230.234375 142.988281 229.621094 C 142.40625 228.703125 142.035156 227.410156 141.765625 226.464844 C 141.074219 224.0625 140.398438 220.777344 139.609375 216.96875 C 139.402344 215.964844 139.125 214.277344 138.769531 212.140625 C 137.78125 206.183594 136.285156 197.183594 134.167969 189.515625 C 132.941406 185.089844 131.6875 181.734375 130.332031 179.253906 C 128.3125 175.5625 125.890625 173.691406 123.132812 173.691406 L 123.113281 173.691406 C 122.828125 173.691406 122.539062 173.710938 122.253906 173.753906 C 119.695312 174.144531 117.554688 176.121094 115.71875 179.792969 C 114.460938 182.296875 113.316406 185.617188 112.207031 189.9375 C 110.28125 197.453125 108.949219 206.238281 108.070312 212.054688 C 107.730469 214.3125 107.460938 216.097656 107.257812 217.140625 C 106.511719 220.957031 105.867188 224.25 105.203125 226.652344 C 104.464844 229.328125 103.796875 230.574219 103.027344 230.691406 C 102.976562 230.699219 102.898438 230.703125 102.820312 230.703125 C 101.550781 230.703125 99.863281 229.828125 98.0625 228.246094 C 95.9375 226.375 93.691406 223.609375 91.386719 220.023438 C 86.464844 212.363281 82.53125 202.757812 80.589844 193.664062 C 79.476562 188.433594 78.960938 181.109375 79.175781 173.570312 C 79.394531 166.007812 80.304688 159.679688 81.683594 156.207031 C 82.066406 155.246094 81.9375 154.160156 81.347656 153.308594 C 74.679688 143.691406 70.304688 133.734375 68.691406 124.511719 C 67.019531 114.953125 68.3125 106.640625 72.4375 100.472656 C 74.464844 97.441406 77.503906 95.707031 81.996094 95.023438 Z M 81.996094 95.023438 " fill-opacity="1" fill-rule="nonzero"/><g clip-path="url(#c221915697)"><path fill="#daa748" d="M 214.65625 234.390625 C 212.9375 234.390625 211.542969 235.785156 211.542969 237.507812 L 211.542969 265.046875 C 211.542969 269.050781 208.285156 272.308594 204.28125 272.308594 L 42.019531 272.308594 C 38.015625 272.308594 34.757812 269.050781 34.757812 265.046875 L 34.757812 49.617188 C 34.757812 45.613281 38.015625 42.355469 42.019531 42.355469 L 79.257812 42.355469 L 79.257812 59.804688 C 79.257812 61.527344 80.652344 62.921875 82.371094 62.921875 L 163.925781 62.921875 C 165.648438 62.921875 167.042969 61.527344 167.042969 59.804688 L 167.042969 42.355469 L 204.277344 42.355469 C 208.28125 42.355469 211.539062 45.613281 211.539062 49.617188 L 211.539062 107.59375 C 211.539062 109.3125 212.933594 110.707031 214.65625 110.707031 C 216.375 110.707031 217.769531 109.3125 217.769531 107.59375 L 217.769531 49.617188 C 217.769531 42.179688 211.71875 36.125 204.277344 36.125 L 167.042969 36.125 L 167.042969 28.882812 C 167.042969 21.199219 160.789062 14.945312 153.105469 14.945312 C 147.03125 14.945312 141.1875 12.035156 137.46875 7.160156 C 135.824219 5.003906 133.683594 3.21875 131.269531 2 C 128.734375 0.714844 126.003906 0.0664062 123.148438 0.0664062 C 120.292969 0.0664062 117.5625 0.71875 115.027344 2 C 112.613281 3.21875 110.472656 5.003906 108.828125 7.160156 C 105.113281 12.035156 99.265625 14.945312 93.191406 14.945312 C 85.507812 14.945312 79.253906 21.199219 79.253906 28.882812 L 79.253906 36.125 L 42.019531 36.125 C 34.578125 36.125 28.527344 42.179688 28.527344 49.617188 L 28.527344 265.042969 C 28.527344 272.484375 34.578125 278.539062 42.019531 278.539062 L 204.277344 278.539062 C 211.71875 278.539062 217.769531 272.484375 217.769531 265.042969 L 217.769531 237.507812 C 217.773438 235.785156 216.378906 234.390625 214.65625 234.390625 Z M 85.488281 28.882812 C 85.488281 24.636719 88.945312 21.179688 93.195312 21.179688 C 97.160156 21.179688 101.132812 20.242188 104.691406 18.46875 C 108.230469 16.699219 111.378906 14.097656 113.785156 10.9375 C 116.03125 7.988281 119.445312 6.296875 123.148438 6.296875 C 126.851562 6.296875 130.265625 7.988281 132.511719 10.9375 C 134.921875 14.097656 138.066406 16.699219 141.605469 18.46875 C 145.164062 20.242188 149.136719 21.179688 153.101562 21.179688 C 157.351562 21.179688 160.808594 24.636719 160.808594 28.882812 L 160.808594 56.691406 L 85.484375 56.691406 L 85.484375 28.882812 Z M 85.488281 28.882812 " fill-opacity="1" fill-rule="nonzero"/></g><path fill="#daa748" d="M 123.148438 13.382812 C 121.429688 13.382812 120.035156 14.777344 120.035156 16.496094 C 120.035156 18.21875 121.429688 19.613281 123.148438 19.613281 C 124.769531 19.613281 126.082031 20.929688 126.082031 22.546875 C 126.082031 24.164062 124.765625 25.476562 123.148438 25.476562 C 121.53125 25.476562 120.21875 24.164062 120.21875 22.546875 C 120.21875 20.824219 118.820312 19.429688 117.101562 19.429688 C 115.382812 19.429688 113.984375 20.824219 113.984375 22.546875 C 113.984375 27.597656 118.097656 31.710938 123.152344 31.710938 C 128.203125 31.710938 132.316406 27.601562 132.316406 22.546875 C 132.316406 17.492188 128.203125 13.382812 123.148438 13.382812 Z M 123.148438 13.382812 " fill-opacity="1" fill-rule="nonzero"/></svg>