<svg xmlns="http://www.w3.org/2000/svg" xmlns:xlink="http://www.w3.org/1999/xlink" width="378" zoomAndPan="magnify" viewBox="0 0 282.96 283.499989" height="378" preserveAspectRatio="xMidYMid meet" version="1.0"><defs><clipPath id="4dc8503715"><path d="M 106 3.289062 L 235 3.289062 L 235 239 L 106 239 Z M 106 3.289062 " clip-rule="nonzero"/></clipPath></defs><path fill="#daa748" d="M 111.894531 107.660156 C 101.613281 107.660156 91.976562 111.226562 87.75 119.273438 C 77.699219 138.433594 86.914062 160.523438 95.050781 180.007812 C 95.867188 181.972656 96.679688 183.917969 97.464844 185.828125 C 101.6875 196.183594 103.539062 211.714844 105.179688 225.414062 C 106.210938 234.023438 107.550781 245.273438 109.320312 249.882812 C 109.609375 250.632812 110.683594 250.582031 110.933594 249.8125 C 112.195312 245.871094 112.75 236.703125 113.167969 229.65625 C 114.363281 209.710938 116 182.398438 131.449219 169.765625 C 138.183594 164.261719 147.699219 164.261719 154.425781 169.765625 C 169.875 182.398438 171.511719 209.710938 172.707031 229.65625 C 173.132812 236.679688 173.679688 245.804688 174.984375 249.789062 C 175.234375 250.539062 176.308594 250.554688 176.589844 249.8125 C 178.339844 245.164062 179.679688 233.980469 180.695312 225.414062 C 182.332031 211.714844 184.1875 196.183594 188.417969 185.828125 C 189.203125 183.910156 190.015625 181.960938 190.835938 180 C 198.960938 160.515625 208.1875 138.433594 198.132812 119.273438 C 191.6875 106.984375 172.621094 105.160156 157.925781 110.484375 C 148.261719 113.992188 137.621094 113.992188 127.957031 110.484375 C 122.890625 108.648438 117.300781 107.660156 111.894531 107.660156 Z M 175.976562 258.1875 C 167.851562 258.1875 167.183594 246.988281 166.167969 230.046875 C 165.042969 211.3125 163.507812 185.660156 150.277344 174.84375 C 144.859375 170.414062 141.015625 170.40625 135.597656 174.84375 C 122.367188 185.660156 120.832031 211.3125 119.714844 230.046875 C 118.699219 246.996094 118.023438 258.1875 109.90625 258.1875 C 102.492188 258.1875 101.058594 246.144531 98.675781 226.191406 C 97.089844 212.902344 95.289062 197.835938 91.394531 188.3125 C 90.621094 186.410156 89.816406 184.480469 89.007812 182.535156 C 80.308594 161.71875 70.460938 138.121094 81.941406 116.238281 C 90.355469 100.191406 113.074219 98.117188 130.195312 104.320312 C 138.414062 107.300781 147.46875 107.300781 155.6875 104.320312 C 172.800781 98.117188 195.519531 100.191406 203.933594 116.238281 C 215.414062 138.121094 205.574219 161.710938 196.886719 182.527344 C 196.066406 184.480469 195.265625 186.410156 194.488281 188.3125 C 190.59375 197.835938 188.792969 212.902344 187.207031 226.199219 C 184.824219 246.152344 183.382812 258.1875 175.976562 258.1875 " fill-opacity="1" fill-rule="nonzero"/><path fill="#daa748" d="M 206.113281 192.339844 C 198.703125 205.5 195.289062 222.273438 192.277344 237.082031 C 187.445312 260.773438 183.894531 275.203125 172.160156 273.214844 C 165.46875 272.089844 162.992188 248.40625 161.183594 231.105469 C 158.460938 205.117188 156.113281 182.671875 142.945312 182.671875 C 129.777344 182.671875 127.429688 205.117188 124.707031 231.105469 C 122.898438 248.40625 120.414062 272.089844 113.722656 273.214844 C 102.003906 275.195312 98.4375 260.773438 93.613281 237.070312 C 90.59375 222.273438 87.179688 205.5 79.78125 192.339844 C 61.984375 160.71875 44.421875 116.78125 61.746094 87.054688 C 69.425781 73.878906 84.074219 68.117188 99.128906 68.117188 C 108.140625 68.117188 117.308594 70.183594 125.21875 73.945312 C 125.414062 74.039062 127.632812 75.160156 128.148438 75.457031 C 131.816406 77.566406 134.042969 79.84375 136.210938 82.054688 C 139.53125 85.433594 142.664062 88.636719 149.382812 89.300781 C 149.492188 89.308594 149.59375 89.308594 149.707031 89.308594 C 151.371094 89.308594 152.796875 88.046875 152.957031 86.355469 C 153.136719 84.554688 151.820312 82.949219 150.019531 82.773438 C 145.992188 82.378906 144.140625 80.757812 141.519531 78.101562 C 147.878906 78.332031 154.289062 77.078125 160.09375 74.230469 C 181.242188 63.839844 211.746094 65.796875 224.144531 87.054688 C 241.472656 116.78125 223.898438 160.71875 206.113281 192.339844 Z M 229.804688 83.761719 C 215.320312 58.910156 181.515625 56.40625 157.199219 68.339844 C 148.613281 72.5625 138.414062 72.71875 129.699219 68.824219 C 129.359375 68.664062 126.617188 67.367188 125.585938 66.921875 C 101.578125 56.664062 69.964844 59.949219 56.085938 83.761719 C 37.199219 116.160156 55.4375 162.445312 74.0625 195.558594 C 80.957031 207.816406 84.269531 224.054688 87.1875 238.378906 C 91.542969 259.738281 95.671875 279.992188 111.351562 279.992188 C 112.453125 279.992188 113.601562 279.890625 114.816406 279.6875 C 126.421875 277.730469 128.640625 256.4375 131.226562 231.789062 C 133.105469 213.824219 135.683594 189.226562 142.945312 189.226562 C 150.210938 189.226562 152.785156 213.824219 154.664062 231.789062 C 157.242188 256.4375 159.46875 277.730469 171.078125 279.6875 C 189.648438 282.800781 194.042969 261.234375 198.695312 238.386719 C 201.613281 224.054688 204.925781 207.816406 211.820312 195.558594 C 230.453125 162.445312 248.691406 116.160156 229.804688 83.761719 " fill-opacity="1" fill-rule="nonzero"/><g clip-path="url(#4dc8503715)"><path fill="#daa748" d="M 226.96875 18.019531 L 208.511719 38.195312 C 206.710938 40.167969 203.628906 40.304688 201.648438 38.492188 C 200.691406 37.621094 200.136719 36.429688 200.078125 35.128906 C 200.019531 33.832031 200.46875 32.597656 201.347656 31.640625 L 219.800781 11.464844 C 220.65625 10.535156 221.796875 10.003906 222.96875 9.910156 C 224.273438 9.792969 225.621094 10.210938 226.664062 11.15625 C 227.621094 12.035156 228.183594 13.230469 228.234375 14.527344 C 228.292969 15.824219 227.839844 17.0625 226.96875 18.019531 Z M 231.09375 6.324219 C 228.839844 4.269531 225.921875 3.210938 222.882812 3.347656 C 219.820312 3.5 217.027344 4.789062 214.972656 7.035156 L 196.511719 27.210938 C 194.453125 29.464844 193.394531 32.375 193.53125 35.421875 C 193.609375 37.257812 194.171875 38.988281 195.058594 40.542969 C 169.984375 66.648438 148.535156 96.230469 132.167969 128.59375 C 123.800781 145.316406 116.871094 162.828125 112.253906 181.03125 C 109.992188 190.15625 108.253906 199.382812 107.375 208.804688 C 106.648438 218.183594 106.554688 227.519531 107.457031 236.882812 C 107.550781 237.8125 108.320312 238.566406 109.285156 238.589844 C 110.316406 238.617188 111.1875 237.796875 111.214844 236.757812 L 111.214844 236.730469 C 111.460938 227.589844 111.949219 218.378906 112.871094 209.324219 C 113.9375 200.328125 115.582031 191.308594 117.878906 182.476562 C 122.503906 164.800781 129.410156 147.730469 137.722656 131.410156 C 146.085938 115.09375 155.894531 99.507812 166.722656 84.699219 C 176.90625 70.796875 187.941406 57.515625 199.847656 45.074219 C 201.5625 45.945312 203.457031 46.40625 205.4375 46.320312 C 205.597656 46.3125 205.761719 46.292969 205.925781 46.285156 C 208.78125 46.039062 211.394531 44.75 213.347656 42.617188 L 231.800781 22.449219 C 233.859375 20.195312 234.917969 17.285156 234.789062 14.238281 C 234.644531 11.191406 233.335938 8.382812 231.09375 6.324219 " fill-opacity="1" fill-rule="nonzero"/></g></svg>