<svg xmlns="http://www.w3.org/2000/svg" xmlns:xlink="http://www.w3.org/1999/xlink" width="378" zoomAndPan="magnify" viewBox="0 0 282.96 283.499989" height="378" preserveAspectRatio="xMidYMid meet" version="1.0"><defs><clipPath id="afd1f07f6f"><path d="M 1.445312 9 L 64 9 L 64 103 L 1.445312 103 Z M 1.445312 9 " clip-rule="nonzero"/></clipPath><clipPath id="c97964c481"><path d="M 37 144 L 199 144 L 199 273.964844 L 37 273.964844 Z M 37 144 " clip-rule="nonzero"/></clipPath><clipPath id="56e0e855cd"><path d="M 63 164 L 191 164 L 191 273.964844 L 63 273.964844 Z M 63 164 " clip-rule="nonzero"/></clipPath></defs><path fill="#daa748" d="M 205.382812 170.070312 C 195.847656 170.070312 186.472656 169.441406 179.671875 167.917969 C 173.871094 166.621094 169.628906 161.566406 169.367188 155.621094 C 169.242188 152.863281 169.140625 149.371094 169.140625 145.394531 C 169.140625 143.953125 170.296875 142.796875 171.71875 142.796875 C 171.738281 142.796875 171.738281 142.796875 171.738281 142.796875 C 173.160156 142.796875 174.335938 143.953125 174.335938 145.394531 C 174.335938 149.269531 174.4375 152.679688 174.558594 155.378906 C 174.722656 158.988281 177.277344 162.074219 180.808594 162.84375 C 193.046875 165.5625 215.550781 165.28125 230.242188 163.414062 C 233.042969 163.070312 235.558594 161.832031 237.507812 159.84375 C 238.519531 158.828125 240.164062 158.808594 241.179688 159.820312 C 242.195312 160.835938 242.214844 162.480469 241.199219 163.496094 C 238.421875 166.316406 234.847656 168.058594 230.910156 168.566406 C 223.625 169.5 214.433594 170.070312 205.382812 170.070312 " fill-opacity="1" fill-rule="nonzero"/><path fill="#daa748" d="M 171.738281 147.566406 C 170.296875 147.566406 169.140625 146.410156 169.140625 144.96875 C 169.183594 79.828125 188.824219 66.152344 205.304688 66.152344 C 223.058594 66.152344 235.882812 80.863281 242.417969 108.707031 C 242.742188 110.105469 241.871094 111.503906 240.46875 111.832031 C 239.027344 112.15625 237.667969 111.28125 237.34375 109.902344 C 231.359375 84.3125 220.582031 71.347656 205.304688 71.347656 C 179.753906 71.347656 174.355469 111.382812 174.335938 144.96875 C 174.335938 146.410156 173.160156 147.566406 171.738281 147.566406 " fill-opacity="1" fill-rule="nonzero"/><path fill="#daa748" d="M 155.058594 107.710938 C 149.582031 107.710938 145.175781 107.347656 141.769531 106.613281 C 135.863281 105.316406 131.5625 100.445312 131.316406 94.722656 C 131.234375 92.980469 131.257812 90.949219 131.277344 88.65625 L 131.316406 84.902344 C 131.316406 83.480469 132.472656 82.304688 133.914062 82.304688 C 135.355469 82.304688 136.511719 83.480469 136.511719 84.902344 L 136.472656 88.71875 C 136.449219 90.886719 136.429688 92.835938 136.511719 94.480469 C 136.652344 97.808594 139.3125 100.75 142.863281 101.523438 C 149.195312 102.902344 159.585938 102.859375 174.640625 101.398438 C 176.042969 101.320312 177.339844 102.3125 177.480469 103.734375 C 177.605469 105.175781 176.570312 106.433594 175.128906 106.574219 C 167.273438 107.324219 160.621094 107.710938 155.058594 107.710938 " fill-opacity="1" fill-rule="nonzero"/><path fill="#daa748" d="M 112.769531 107.710938 C 100.613281 107.710938 85.863281 105.90625 75.007812 104.566406 L 74.050781 104.445312 C 64.980469 103.328125 58.488281 96.082031 58.589844 87.175781 C 59.15625 36.769531 73.625 9.007812 99.335938 9.007812 C 120.765625 9.007812 130.101562 29.199219 133.976562 50.75 C 137.851562 29.929688 147.0625 9.007812 168.511719 9.007812 C 190.976562 9.007812 204.835938 29.523438 208.609375 68.34375 C 208.753906 69.785156 207.699219 71.042969 206.257812 71.183594 C 204.976562 71.265625 203.578125 70.273438 203.4375 68.851562 C 201.019531 43.910156 193.003906 14.203125 168.511719 14.203125 C 139.65625 14.203125 136.53125 61.730469 136.511719 82.164062 C 136.511719 83.582031 135.355469 84.761719 133.914062 84.761719 C 132.472656 84.761719 131.316406 83.582031 131.316406 82.164062 C 131.296875 61.730469 128.132812 14.203125 99.335938 14.203125 C 69.121094 14.203125 64.089844 59.964844 63.785156 87.234375 C 63.703125 93.546875 68.1875 98.5 74.679688 99.308594 L 75.636719 99.410156 C 90.652344 101.257812 113.339844 104.039062 124.984375 101.523438 C 128.496094 100.769531 131.15625 97.808594 131.316406 94.5 C 131.398438 93.058594 132.535156 91.84375 134.035156 92.023438 C 135.457031 92.085938 136.574219 93.304688 136.511719 94.746094 C 136.25 100.445312 131.945312 105.335938 126.082031 106.59375 C 122.410156 107.40625 117.824219 107.710938 112.769531 107.710938 " fill-opacity="1" fill-rule="nonzero"/><path fill="#daa748" d="M 237.8125 102.515625 C 236.390625 102.515625 235.253906 101.378906 235.214844 99.980469 C 235.195312 98.539062 236.328125 97.363281 237.75 97.320312 C 252.238281 97.039062 261.1875 93.058594 261.1875 89.527344 C 261.1875 41.660156 252.664062 14.203125 237.8125 14.203125 C 221.152344 14.203125 211.023438 52.089844 211.023438 68.75 C 211.023438 70.191406 209.867188 71.347656 208.429688 71.347656 C 207.007812 71.347656 205.832031 70.191406 205.832031 68.75 C 205.832031 52.292969 215.671875 9.007812 237.8125 9.007812 C 261.429688 9.007812 266.382812 52.800781 266.382812 89.527344 C 266.382812 98.703125 251.023438 102.253906 237.871094 102.515625 C 237.851562 102.515625 237.832031 102.515625 237.8125 102.515625 " fill-opacity="1" fill-rule="nonzero"/><g clip-path="url(#afd1f07f6f)"><path fill="#daa748" d="M 30.851562 14.203125 C 15.46875 14.203125 6.640625 42.226562 6.640625 91.089844 C 6.640625 91.476562 6.742188 92.003906 7.453125 92.695312 C 11.449219 96.488281 26.445312 98.09375 47.53125 96.976562 C 50.777344 96.8125 53.597656 94.765625 54.714844 91.78125 C 56.480469 87.132812 58.589844 79.625 58.589844 70.394531 C 58.589844 53.246094 48.117188 14.203125 30.851562 14.203125 Z M 47.671875 99.574219 L 47.734375 99.574219 Z M 35.089844 102.535156 C 21.941406 102.535156 8.851562 101.195312 3.859375 96.46875 C 2.277344 94.945312 1.445312 93.101562 1.445312 91.089844 C 1.445312 53.652344 6.539062 9.007812 30.851562 9.007812 C 53.660156 9.007812 63.785156 53.488281 63.785156 70.394531 C 63.785156 80.417969 61.492188 88.554688 59.582031 93.628906 C 57.738281 98.519531 53.109375 101.886719 47.8125 102.171875 C 43.757812 102.375 39.414062 102.535156 35.089844 102.535156 " fill-opacity="1" fill-rule="nonzero"/></g><g clip-path="url(#c97964c481)"><path fill="#daa748" d="M 40.40625 273.945312 C 39.71875 273.945312 39.046875 273.683594 38.539062 273.152344 C 37.546875 272.140625 37.566406 270.496094 38.582031 269.480469 L 142.679688 168 C 148.890625 161.953125 156.5 157.285156 164.699219 154.546875 L 195.441406 144.21875 C 196.800781 143.730469 198.261719 144.480469 198.707031 145.839844 C 199.175781 147.199219 198.445312 148.679688 197.085938 149.128906 L 166.363281 159.457031 C 158.894531 161.972656 151.953125 166.214844 146.292969 171.734375 L 42.214844 273.214844 C 41.707031 273.703125 41.058594 273.945312 40.40625 273.945312 " fill-opacity="1" fill-rule="nonzero"/></g><g clip-path="url(#56e0e855cd)"><path fill="#daa748" d="M 66.382812 273.945312 C 65.652344 273.945312 64.921875 273.640625 64.394531 273.03125 C 63.480469 271.9375 63.601562 270.292969 64.699219 269.359375 L 168.59375 181.046875 L 186.328125 165.382812 C 187.386719 164.40625 189.027344 164.507812 189.980469 165.605469 C 190.9375 166.679688 190.835938 168.304688 189.757812 169.257812 L 172.003906 184.984375 L 68.066406 273.335938 C 67.578125 273.742188 66.96875 273.945312 66.382812 273.945312 " fill-opacity="1" fill-rule="nonzero"/></g><path fill="#daa748" d="M 194.203125 100.140625 C 194.121094 100.140625 194.039062 100.140625 193.9375 100.121094 C 192.519531 99.980469 191.503906 98.761719 191.625 97.339844 C 191.808594 95.273438 194.0625 90.402344 195.015625 88.414062 C 195.644531 87.113281 197.1875 86.566406 198.484375 87.175781 C 199.761719 87.804688 200.3125 89.367188 199.703125 90.644531 C 198.382812 93.382812 196.902344 96.9375 196.800781 97.828125 C 196.636719 99.148438 195.5 100.140625 194.203125 100.140625 " fill-opacity="1" fill-rule="nonzero"/><path fill="#daa748" d="M 191.058594 135.289062 C 190.996094 135.289062 190.9375 135.289062 190.875 135.269531 C 189.433594 135.167969 188.359375 133.929688 188.460938 132.507812 L 189.820312 113.636719 C 189.921875 112.214844 191.199219 111.121094 192.601562 111.242188 C 194.019531 111.34375 195.097656 112.582031 194.996094 114.023438 L 193.65625 132.875 C 193.554688 134.234375 192.417969 135.289062 191.058594 135.289062 " fill-opacity="1" fill-rule="nonzero"/><path fill="#daa748" d="M 201.449219 206.414062 C 200.007812 206.414062 198.851562 205.257812 198.851562 203.816406 L 198.851562 198.621094 C 198.851562 197.179688 200.007812 196.023438 201.449219 196.023438 C 202.886719 196.023438 204.042969 197.179688 204.042969 198.621094 L 204.042969 203.816406 C 204.042969 205.257812 202.886719 206.414062 201.449219 206.414062 " fill-opacity="1" fill-rule="nonzero"/><path fill="#daa748" d="M 201.449219 232.386719 C 200.007812 232.386719 198.851562 231.230469 198.851562 229.789062 L 198.851562 224.59375 C 198.851562 223.152344 200.007812 221.996094 201.449219 221.996094 C 202.886719 221.996094 204.042969 223.152344 204.042969 224.59375 L 204.042969 229.789062 C 204.042969 231.230469 202.886719 232.386719 201.449219 232.386719 " fill-opacity="1" fill-rule="nonzero"/><path fill="#daa748" d="M 217.03125 216.800781 L 211.835938 216.800781 C 210.394531 216.800781 209.238281 215.644531 209.238281 214.203125 C 209.238281 212.765625 210.394531 211.609375 211.835938 211.609375 L 217.03125 211.609375 C 218.472656 211.609375 219.628906 212.765625 219.628906 214.203125 C 219.628906 215.644531 218.472656 216.800781 217.03125 216.800781 " fill-opacity="1" fill-rule="nonzero"/><path fill="#daa748" d="M 191.058594 216.800781 L 185.863281 216.800781 C 184.421875 216.800781 183.265625 215.644531 183.265625 214.203125 C 183.265625 212.765625 184.421875 211.609375 185.863281 211.609375 L 191.058594 211.609375 C 192.5 211.609375 193.65625 212.765625 193.65625 214.203125 C 193.65625 215.644531 192.5 216.800781 191.058594 216.800781 " fill-opacity="1" fill-rule="nonzero"/><path fill="#daa748" d="M 248.199219 128.492188 C 246.761719 128.492188 245.601562 127.332031 245.601562 125.894531 L 245.601562 120.699219 C 245.601562 119.257812 246.761719 118.101562 248.199219 118.101562 C 249.640625 118.101562 250.796875 119.257812 250.796875 120.699219 L 250.796875 125.894531 C 250.796875 127.332031 249.640625 128.492188 248.199219 128.492188 " fill-opacity="1" fill-rule="nonzero"/><path fill="#daa748" d="M 248.199219 154.464844 C 246.761719 154.464844 245.601562 153.308594 245.601562 151.867188 L 245.601562 146.671875 C 245.601562 145.230469 246.761719 144.074219 248.199219 144.074219 C 249.640625 144.074219 250.796875 145.230469 250.796875 146.671875 L 250.796875 151.867188 C 250.796875 153.308594 249.640625 154.464844 248.199219 154.464844 " fill-opacity="1" fill-rule="nonzero"/><path fill="#daa748" d="M 263.785156 138.878906 L 258.589844 138.878906 C 257.148438 138.878906 255.992188 137.722656 255.992188 136.28125 C 255.992188 134.839844 257.148438 133.683594 258.589844 133.683594 L 263.785156 133.683594 C 265.226562 133.683594 266.382812 134.839844 266.382812 136.28125 C 266.382812 137.722656 265.226562 138.878906 263.785156 138.878906 " fill-opacity="1" fill-rule="nonzero"/><path fill="#daa748" d="M 237.8125 138.878906 L 232.617188 138.878906 C 231.175781 138.878906 230.019531 137.722656 230.019531 136.28125 C 230.019531 134.839844 231.175781 133.683594 232.617188 133.683594 L 237.8125 133.683594 C 239.253906 133.683594 240.410156 134.839844 240.410156 136.28125 C 240.410156 137.722656 239.253906 138.878906 237.8125 138.878906 " fill-opacity="1" fill-rule="nonzero"/><path fill="#daa748" d="M 263.785156 180.4375 C 262.34375 180.4375 261.1875 179.28125 261.1875 177.839844 L 261.1875 172.644531 C 261.1875 171.207031 262.34375 170.050781 263.785156 170.050781 C 265.226562 170.050781 266.382812 171.207031 266.382812 172.644531 L 266.382812 177.839844 C 266.382812 179.28125 265.226562 180.4375 263.785156 180.4375 " fill-opacity="1" fill-rule="nonzero"/><path fill="#daa748" d="M 263.785156 206.414062 C 262.34375 206.414062 261.1875 205.257812 261.1875 203.816406 L 261.1875 198.621094 C 261.1875 197.179688 262.34375 196.023438 263.785156 196.023438 C 265.226562 196.023438 266.382812 197.179688 266.382812 198.621094 L 266.382812 203.816406 C 266.382812 205.257812 265.226562 206.414062 263.785156 206.414062 " fill-opacity="1" fill-rule="nonzero"/><path fill="#daa748" d="M 279.371094 190.828125 L 274.175781 190.828125 C 272.734375 190.828125 271.578125 189.671875 271.578125 188.230469 C 271.578125 186.789062 272.734375 185.632812 274.175781 185.632812 L 279.371094 185.632812 C 280.8125 185.632812 281.96875 186.789062 281.96875 188.230469 C 281.96875 189.671875 280.8125 190.828125 279.371094 190.828125 " fill-opacity="1" fill-rule="nonzero"/><path fill="#daa748" d="M 253.394531 190.828125 L 248.199219 190.828125 C 246.761719 190.828125 245.601562 189.671875 245.601562 188.230469 C 245.601562 186.789062 246.761719 185.632812 248.199219 185.632812 L 253.394531 185.632812 C 254.835938 185.632812 255.992188 186.789062 255.992188 188.230469 C 255.992188 189.671875 254.835938 190.828125 253.394531 190.828125 " fill-opacity="1" fill-rule="nonzero"/></svg>