<svg xmlns="http://www.w3.org/2000/svg" xmlns:xlink="http://www.w3.org/1999/xlink" width="378" zoomAndPan="magnify" viewBox="0 0 282.96 283.499989" height="378" preserveAspectRatio="xMidYMid meet" version="1.0"><defs><clipPath id="f90905064e"><path d="M 204 22 L 275.683594 22 L 275.683594 95 L 204 95 Z M 204 22 " clip-rule="nonzero"/></clipPath><clipPath id="dc0220dbd0"><path d="M 187 159 L 274 159 L 274 283 L 187 283 Z M 187 159 " clip-rule="nonzero"/></clipPath></defs><path fill="#daa748" d="M 76.703125 202.394531 C 82.050781 204.421875 86.878906 207.5 90.789062 211.40625 C 94.234375 214.851562 96.894531 218.878906 98.636719 223.214844 C 100.382812 218.878906 103.039062 214.851562 106.492188 211.40625 C 110.390625 207.5 115.230469 204.421875 120.566406 202.394531 C 115.230469 200.363281 110.390625 197.28125 106.492188 193.378906 C 103.039062 189.933594 100.382812 185.898438 98.636719 181.570312 C 96.894531 185.898438 94.234375 189.933594 90.789062 193.378906 C 86.878906 197.28125 82.050781 200.363281 76.703125 202.394531 Z M 98.636719 235.652344 C 97.417969 235.652344 96.410156 234.71875 96.320312 233.5 C 95.828125 226.566406 92.695312 219.878906 87.503906 214.6875 C 82.257812 209.441406 75.101562 205.894531 67.332031 204.683594 C 66.203125 204.511719 65.367188 203.539062 65.367188 202.394531 C 65.367188 201.246094 66.203125 200.273438 67.332031 200.09375 C 75.101562 198.890625 82.257812 195.335938 87.503906 190.09375 C 92.695312 184.898438 95.828125 178.21875 96.320312 171.277344 C 96.410156 170.066406 97.417969 169.125 98.636719 169.125 C 99.855469 169.125 100.863281 170.066406 100.949219 171.277344 C 101.441406 178.21875 104.574219 184.898438 109.769531 190.09375 C 115.011719 195.335938 122.175781 198.890625 129.9375 200.09375 C 131.070312 200.273438 131.902344 201.246094 131.902344 202.394531 C 131.902344 203.539062 131.070312 204.511719 129.9375 204.683594 C 122.175781 205.894531 115.011719 209.441406 109.769531 214.6875 C 104.574219 219.878906 101.441406 226.566406 100.949219 233.5 C 100.863281 234.71875 99.855469 235.652344 98.636719 235.652344 " fill-opacity="1" fill-rule="nonzero"/><g clip-path="url(#f90905064e)"><path fill="#daa748" d="M 215.734375 58.605469 C 221.660156 60.785156 227.027344 64.160156 231.34375 68.472656 C 235.164062 72.289062 238.082031 76.769531 239.953125 81.59375 C 241.824219 76.769531 244.746094 72.289062 248.558594 68.472656 C 252.875 64.160156 258.242188 60.785156 264.167969 58.605469 C 258.242188 56.421875 252.875 53.046875 248.558594 48.738281 C 244.746094 44.917969 241.824219 40.4375 239.953125 35.613281 C 238.082031 40.4375 235.164062 44.917969 231.34375 48.738281 C 227.027344 53.046875 221.660156 56.421875 215.734375 58.605469 Z M 239.953125 94.34375 C 238.734375 94.34375 237.726562 93.402344 237.636719 92.191406 C 237.101562 84.65625 233.699219 77.394531 228.058594 71.753906 C 222.371094 66.066406 214.597656 62.207031 206.175781 60.894531 C 205.046875 60.722656 204.210938 59.75 204.210938 58.605469 C 204.210938 57.457031 205.046875 56.484375 206.175781 56.3125 C 214.597656 55 222.371094 51.148438 228.058594 45.453125 C 233.699219 39.8125 237.101562 32.550781 237.636719 25.015625 C 237.726562 23.804688 238.734375 22.863281 239.953125 22.863281 C 241.171875 22.863281 242.179688 23.804688 242.265625 25.015625 C 242.800781 32.558594 246.203125 39.8125 251.847656 45.453125 C 257.53125 51.148438 265.308594 55 273.726562 56.3125 C 274.859375 56.484375 275.691406 57.457031 275.691406 58.605469 C 275.691406 59.75 274.859375 60.722656 273.726562 60.894531 C 265.308594 62.207031 257.53125 66.066406 251.847656 71.753906 C 246.203125 77.394531 242.800781 84.65625 242.265625 92.191406 C 242.179688 93.402344 241.171875 94.34375 239.953125 94.34375 " fill-opacity="1" fill-rule="nonzero"/></g><path fill="#daa748" d="M 51.574219 5.296875 C 51.160156 5.296875 50.738281 5.3125 50.328125 5.332031 C 42.449219 5.738281 34.34375 10.433594 28.632812 17.878906 C 23.984375 23.957031 20.664062 31.753906 18.167969 42.429688 C 14.535156 58.03125 13.679688 74.378906 12.859375 90.1875 C 12.605469 94.976562 12.578125 99.195312 14.765625 102.265625 C 16.8125 105.128906 25.703125 109.082031 40.390625 110.972656 C 55.222656 112.890625 75.90625 112.316406 85.40625 104.394531 C 89.15625 100.601562 89.839844 47.464844 76.398438 20.425781 C 71.96875 11.511719 61.675781 5.296875 51.574219 5.296875 Z M 54.808594 116.550781 C 49.644531 116.550781 44.515625 116.1875 39.796875 115.578125 C 28.488281 114.121094 14.984375 110.566406 10.988281 104.953125 C 7.933594 100.675781 7.941406 95.410156 8.226562 89.949219 C 9.050781 73.933594 9.914062 57.378906 13.648438 41.371094 C 16.296875 30.035156 19.886719 21.671875 24.949219 15.058594 C 31.476562 6.539062 40.867188 1.171875 50.085938 0.699219 C 62.546875 0.0625 75.066406 7.320312 80.554688 18.359375 C 93.617188 44.636719 95.707031 101.859375 88.375 107.964844 C 80.789062 114.289062 67.6875 116.550781 54.808594 116.550781 " fill-opacity="1" fill-rule="nonzero"/><path fill="#daa748" d="M 134.339844 116.566406 C 115.171875 116.566406 95.496094 111.597656 90.753906 104.953125 C 87.683594 100.675781 87.691406 95.410156 87.988281 89.941406 C 88.824219 73.921875 89.6875 57.355469 93.414062 41.378906 C 96.046875 30.050781 99.636719 21.6875 104.714844 15.058594 C 111.226562 6.542969 120.617188 1.179688 129.84375 0.691406 C 142.324219 0.0820312 154.835938 7.320312 160.3125 18.359375 C 168.6875 35.222656 171.132812 60.589844 171.800781 70.714844 C 171.886719 72 170.914062 73.101562 169.636719 73.179688 C 168.355469 73.253906 167.253906 72.296875 167.164062 71.019531 C 165.800781 50.210938 161.789062 31.769531 156.15625 20.417969 C 151.550781 11.144531 140.597656 4.773438 130.082031 5.332031 C 122.199219 5.738281 114.097656 10.433594 108.398438 17.878906 C 103.742188 23.964844 100.414062 31.769531 97.933594 42.429688 C 94.296875 58.007812 93.441406 74.363281 92.625 90.1875 C 92.371094 94.976562 92.332031 99.1875 94.53125 102.257812 C 98.570312 107.914062 122.207031 113.425781 143.035156 111.539062 C 144.304688 111.429688 145.4375 112.367188 145.550781 113.644531 C 145.667969 114.917969 144.726562 116.050781 143.449219 116.167969 C 140.46875 116.433594 137.40625 116.566406 134.339844 116.566406 " fill-opacity="1" fill-rule="nonzero"/><path fill="#daa748" d="M 180.226562 70.902344 C 179.804688 70.902344 179.394531 70.910156 178.980469 70.933594 C 171.101562 71.339844 162.996094 76.03125 157.289062 83.488281 C 152.636719 89.558594 149.308594 97.355469 146.820312 108.03125 C 143.179688 123.628906 142.332031 139.976562 141.511719 155.789062 C 141.257812 160.582031 141.230469 164.796875 143.421875 167.863281 C 145.464844 170.734375 154.355469 174.679688 169.035156 176.582031 C 183.875 178.488281 204.558594 177.914062 214.054688 170.003906 C 217.800781 166.210938 218.492188 113.070312 205.050781 86.027344 C 200.613281 77.113281 190.328125 70.902344 180.226562 70.902344 Z M 183.460938 182.15625 C 178.296875 182.15625 173.171875 181.789062 168.449219 181.179688 C 157.140625 179.722656 143.636719 176.167969 139.640625 170.5625 C 136.335938 165.917969 136.644531 159.921875 136.871094 155.546875 C 137.707031 139.535156 138.566406 122.976562 142.304688 106.972656 C 144.941406 95.640625 148.535156 87.28125 153.601562 80.664062 C 160.121094 72.144531 169.523438 66.769531 178.738281 66.296875 C 191.191406 65.667969 203.71875 72.921875 209.207031 83.957031 C 222.261719 110.234375 224.359375 167.457031 217.027344 173.5625 C 209.441406 179.894531 196.34375 182.152344 183.460938 182.15625 " fill-opacity="1" fill-rule="nonzero"/><path fill="#daa748" d="M 161.835938 102.105469 C 161.582031 102.105469 161.328125 102.0625 161.074219 101.972656 C 159.863281 101.558594 159.222656 100.242188 159.636719 99.027344 C 161.59375 93.363281 165.03125 88.304688 169.574219 84.402344 C 170.539062 83.566406 172.003906 83.675781 172.84375 84.648438 C 173.679688 85.621094 173.570312 87.085938 172.597656 87.917969 C 168.679688 91.289062 165.714844 95.65625 164.023438 100.546875 C 163.699219 101.503906 162.800781 102.105469 161.835938 102.105469 " fill-opacity="1" fill-rule="nonzero"/><path fill="#daa748" d="M 155.675781 146.089844 C 154.429688 146.089844 153.398438 145.097656 153.363281 143.84375 C 153.074219 135.101562 153.90625 126.351562 155.820312 117.8125 C 156.105469 116.566406 157.339844 115.777344 158.601562 116.058594 C 159.847656 116.339844 160.628906 117.582031 160.355469 118.835938 C 158.519531 126.988281 157.730469 135.351562 157.996094 143.691406 C 158.042969 144.972656 157.039062 146.046875 155.757812 146.089844 C 155.726562 146.089844 155.707031 146.089844 155.675781 146.089844 " fill-opacity="1" fill-rule="nonzero"/><g clip-path="url(#dc0220dbd0)"><path fill="#daa748" d="M 266.113281 283.042969 C 265.394531 283.042969 264.683594 282.945312 263.992188 282.757812 C 260.898438 281.886719 258.664062 279.582031 256.871094 277.726562 C 244.070312 264.417969 231.285156 251.109375 218.5 237.808594 C 210.128906 229.097656 201.484375 220.089844 195.296875 209.289062 C 191.335938 202.371094 186.746094 191.59375 187.347656 179.511719 C 187.414062 178.234375 188.503906 177.234375 189.785156 177.3125 C 191.070312 177.378906 192.054688 178.464844 191.992188 179.742188 C 191.4375 190.703125 195.675781 200.609375 199.324219 206.984375 C 205.226562 217.28125 213.675781 226.078125 221.84375 234.585938 C 234.628906 247.894531 247.414062 261.195312 260.214844 274.503906 C 261.6875 276.027344 263.355469 277.761719 265.242188 278.285156 C 266.054688 278.507812 267.078125 278.386719 267.785156 277.972656 C 268.191406 277.730469 268.441406 277.433594 268.527344 277.09375 C 268.6875 276.425781 268.390625 275.460938 268.035156 274.453125 C 259.925781 250.789062 250.894531 227.066406 241.199219 203.921875 C 237.253906 194.496094 233.535156 186.097656 227.949219 178.816406 C 224.582031 174.433594 220.609375 170.742188 216.445312 168.132812 C 213.015625 165.96875 209.417969 164.519531 205.75 163.800781 C 204.492188 163.554688 203.667969 162.335938 203.914062 161.074219 C 204.160156 159.820312 205.378906 159 206.640625 159.246094 C 210.867188 160.074219 215.003906 161.742188 218.917969 164.199219 C 223.539062 167.101562 227.933594 171.175781 231.625 175.984375 C 237.558594 183.710938 241.410156 192.398438 245.476562 202.132812 C 255.21875 225.363281 264.285156 249.1875 272.421875 272.9375 C 272.863281 274.199219 273.539062 276.136719 273.039062 278.1875 C 272.660156 279.75 271.632812 281.097656 270.136719 281.976562 C 268.941406 282.679688 267.519531 283.042969 266.113281 283.042969 " fill-opacity="1" fill-rule="nonzero"/></g></svg>