<svg xmlns="http://www.w3.org/2000/svg" xmlns:xlink="http://www.w3.org/1999/xlink" width="378" zoomAndPan="magnify" viewBox="0 0 282.96 283.499989" height="378" preserveAspectRatio="xMidYMid meet" version="1.0"><defs><clipPath id="31b7d45f8f"><path d="M 40.617188 1.636719 L 242.757812 1.636719 L 242.757812 281.644531 L 40.617188 281.644531 Z M 40.617188 1.636719 " clip-rule="nonzero"/></clipPath></defs><g clip-path="url(#31b7d45f8f)"><path fill="#daa748" d="M 158.066406 138.871094 C 156.648438 138.871094 155.421875 138.160156 154.777344 136.933594 L 145.871094 120.160156 C 143.550781 129.257812 144.96875 139.128906 148.324219 148.484375 C 152.777344 160.871094 152.386719 162.355469 154.066406 172.742188 C 155.808594 183.644531 159.484375 190.871094 161.355469 192.550781 C 166.96875 185.128906 162.195312 157.582031 177.9375 157.515625 C 193.292969 157.449219 188.777344 185.195312 194.324219 192.550781 C 198.453125 188.9375 201.230469 175.96875 202.648438 166.097656 C 204.585938 152.546875 209.359375 147.320312 210.714844 132.804688 C 212.199219 116.867188 205.359375 102.289062 186.839844 110.933594 C 198.261719 116.996094 200.90625 131.578125 193.9375 131.578125 C 191.875 131.578125 190.195312 129.902344 190.195312 127.835938 C 190.195312 116.738281 177.617188 116.09375 175.746094 114.804688 C 171.550781 112.03125 167.613281 110.09375 164.066406 109.125 L 169.292969 120.03125 C 169.875 121.191406 169.808594 122.480469 169.164062 123.515625 L 161.292969 137.0625 C 160.582031 138.222656 159.355469 138.871094 158.066406 138.871094 Z M 223.617188 281.328125 L 44.382812 281.328125 C 42.320312 281.328125 40.640625 279.648438 40.640625 277.585938 L 40.640625 195.324219 C 40.640625 190.355469 47.867188 191.582031 51.15625 191.582031 C 44.253906 160.417969 61.09375 138.484375 90.128906 156.355469 C 119.097656 138.484375 136 160.417969 129.097656 191.582031 L 147.226562 191.582031 C 151.871094 191.582031 152.386719 200.421875 153.035156 204.808594 C 154.453125 214.613281 157.226562 227.648438 161.355469 231.261719 C 167.035156 223.710938 162.066406 196.550781 178.003906 196.226562 C 181.9375 196.226562 188.777344 198.550781 190.324219 214.097656 C 191.550781 226.359375 193.488281 230.164062 194.324219 231.261719 C 198.453125 227.648438 201.230469 214.679688 202.648438 204.808594 C 203.292969 200.421875 203.875 191.582031 208.457031 191.582031 L 223.617188 191.582031 C 225.683594 191.582031 227.296875 193.257812 227.296875 195.324219 L 227.296875 277.585938 C 227.296875 279.648438 225.617188 281.328125 223.617188 281.328125 Z M 59.480469 194.164062 C 61.867188 201.582031 64.125 206.9375 65.289062 215.132812 C 66.707031 224.9375 69.480469 237.972656 73.675781 241.582031 C 74.449219 240.488281 76.386719 236.679688 77.675781 224.421875 C 78.902344 211.96875 83.160156 206.226562 91.03125 206.550781 C 93.546875 206.679688 95.871094 208.035156 97.546875 209.90625 C 104.320312 217.453125 102.0625 235.453125 106.578125 241.582031 C 107.546875 240.746094 110 236.164062 111.226562 232.746094 L 111.484375 232.035156 L 111.933594 230.488281 L 113.675781 223.261719 C 115.613281 212.226562 114.320312 213.066406 119.871094 196.742188 C 126.386719 177.902344 124.257812 148.226562 99.09375 159.902344 C 110.578125 165.96875 113.160156 180.613281 106.191406 180.613281 C 104.191406 180.613281 102.515625 178.9375 102.515625 176.871094 C 102.515625 165.839844 90.257812 165.324219 88.0625 163.902344 C 60.320312 145.320312 52.320312 169.96875 59.480469 194.164062 Z M 48.0625 273.84375 L 219.875 273.84375 L 219.875 199.066406 L 211.230469 199.066406 C 210.132812 203.257812 209.808594 207.453125 208.972656 212.613281 C 207.421875 222.421875 202.519531 238.9375 194.132812 238.9375 C 180.390625 238.9375 185.9375 203.648438 177.746094 203.648438 C 170.003906 203.648438 175.097656 238.9375 161.550781 238.9375 C 151.097656 238.9375 147.097656 215.90625 145.679688 205.839844 C 145.226562 202.808594 144.96875 201.195312 144.453125 199.066406 L 126.96875 199.066406 C 122.257812 213.132812 123.160156 211.195312 121.289062 222.9375 C 119.675781 232.746094 114.773438 249.261719 106.449219 249.261719 C 93.03125 249.261719 98.128906 214.164062 90.0625 213.96875 C 82.320312 213.839844 87.417969 249.261719 73.804688 249.261719 C 65.738281 249.261719 62.511719 235.195312 61.417969 233.390625 C 60.125 231.261719 58.511719 220.097656 57.933594 216.164062 C 57.160156 210.871094 56.253906 207.839844 53.285156 199.066406 L 48.0625 199.066406 Z M 141.292969 111.511719 L 129.226562 88.867188 C 128.902344 88.15625 128.710938 87.382812 128.839844 86.609375 L 141.226562 4.800781 C 141.484375 2.992188 143.097656 1.636719 144.902344 1.636719 L 157.226562 1.636719 C 159.484375 1.636719 161.226562 3.703125 160.90625 5.894531 L 150.453125 80.867188 L 160.066406 100.867188 C 165.421875 101.191406 171.421875 103.382812 177.875 107.320312 C 189.101562 100.417969 200.648438 97.835938 209.359375 105.125 L 220.84375 81.191406 L 197.488281 6.476562 C 196.714844 4.152344 198.585938 1.636719 201.035156 1.636719 L 213.359375 1.636719 C 214.972656 1.636719 216.390625 2.734375 216.90625 4.28125 L 242.457031 86.027344 C 242.78125 86.996094 242.652344 88.027344 242.199219 88.867188 L 218.070312 134.289062 C 217.617188 139.773438 216.328125 145.578125 214.328125 151 C 210.070312 163.0625 210.648438 163.839844 208.972656 173.96875 C 207.421875 183.710938 202.457031 200.550781 193.9375 200.226562 C 180.519531 199.777344 185.746094 164.933594 177.875 164.933594 C 169.875 164.933594 175.164062 200.226562 161.550781 200.226562 C 151.097656 200.226562 147.097656 177.195312 145.679688 167.195312 C 144.839844 161.191406 143.742188 158.226562 140.773438 149.449219 C 136.066406 135.320312 136.257812 120.867188 141.292969 111.511719 Z M 214.457031 111.578125 C 215.746094 114.03125 216.714844 116.738281 217.359375 119.773438 L 234.910156 86.738281 L 210.585938 9.121094 L 206.066406 9.121094 L 228.390625 80.351562 C 228.648438 81.253906 228.585938 82.222656 228.199219 83.125 Z M 93.160156 207 C 93.351562 207 93.484375 207.066406 93.613281 207.128906 Z M 136.386719 86.480469 L 158.195312 127.515625 L 161.742188 121.515625 L 143.292969 83.125 C 142.96875 82.414062 142.839844 81.707031 142.902344 80.996094 L 152.96875 9.121094 L 148.128906 9.121094 Z M 136.386719 86.480469 " fill-opacity="1" fill-rule="evenodd"/></g></svg>