<svg xmlns="http://www.w3.org/2000/svg" xmlns:xlink="http://www.w3.org/1999/xlink" width="378" zoomAndPan="magnify" viewBox="0 0 282.96 283.499989" height="378" preserveAspectRatio="xMidYMid meet" version="1.0"><defs><clipPath id="7e56091ce0"><path d="M 67.683594 2 L 215.921875 2 L 215.921875 281.484375 L 67.683594 281.484375 Z M 67.683594 2 " clip-rule="nonzero"/></clipPath></defs><g clip-path="url(#7e56091ce0)"><path fill="#daa748" d="M 189.289062 120.464844 C 190.398438 120.464844 191.339844 119.640625 191.484375 118.539062 C 192.980469 107.066406 198.566406 94.605469 203.964844 82.554688 C 210.011719 69.070312 215.71875 56.332031 215.71875 45.34375 C 215.71875 24.308594 199.917969 4.328125 181.90625 2.585938 C 172.210938 1.648438 164.363281 5.691406 157.4375 9.257812 C 152.046875 12.03125 146.957031 14.652344 141.703125 14.652344 C 136.445312 14.652344 131.355469 12.03125 125.964844 9.257812 C 119.039062 5.691406 111.191406 1.652344 101.496094 2.585938 C 83.484375 4.328125 67.683594 24.308594 67.683594 45.34375 C 67.683594 56.332031 73.394531 69.070312 79.4375 82.554688 C 84.839844 94.605469 90.425781 107.066406 91.921875 118.539062 C 92.066406 119.640625 93.003906 120.464844 94.117188 120.464844 L 108.96875 120.464844 L 108.96875 138.03125 L 100.246094 144.113281 C 97.21875 146.222656 95.976562 149.863281 97.082031 153.382812 C 98.191406 156.90625 101.289062 159.179688 104.980469 159.179688 L 114.632812 159.179688 L 122.070312 186.339844 L 108.738281 186.339844 C 104.207031 186.339844 100.519531 190.023438 100.519531 194.554688 L 100.519531 210.105469 C 100.519531 214.636719 104.207031 218.324219 108.738281 218.324219 L 111.335938 218.324219 C 111.382812 221.851562 111.53125 225.351562 111.804688 228.800781 L 102.734375 228.800781 C 101.511719 228.800781 100.519531 229.792969 100.519531 231.015625 C 100.519531 232.238281 101.511719 233.226562 102.734375 233.226562 L 112.222656 233.226562 C 112.695312 237.609375 113.363281 241.917969 114.210938 246.160156 L 108.308594 246.160156 C 107.085938 246.160156 106.09375 247.148438 106.09375 248.371094 C 106.09375 249.59375 107.085938 250.585938 108.308594 250.585938 L 115.167969 250.585938 C 116.191406 254.976562 117.417969 259.289062 118.84375 263.515625 L 113.519531 263.515625 C 112.296875 263.515625 111.304688 264.503906 111.304688 265.726562 C 111.304688 266.949219 112.296875 267.941406 113.519531 267.941406 L 120.421875 267.941406 C 121.972656 272.066406 123.714844 276.109375 125.660156 280.054688 C 126.03125 280.8125 126.800781 281.289062 127.644531 281.289062 L 155.761719 281.289062 C 156.601562 281.289062 157.371094 280.8125 157.746094 280.054688 C 159.691406 276.109375 161.429688 272.066406 162.980469 267.941406 L 169.882812 267.941406 C 171.105469 267.941406 172.097656 266.949219 172.097656 265.726562 C 172.097656 264.503906 171.105469 263.515625 169.882812 263.515625 L 164.558594 263.515625 C 165.984375 259.289062 167.210938 254.976562 168.234375 250.585938 L 175.097656 250.585938 C 176.316406 250.585938 177.308594 249.59375 177.308594 248.371094 C 177.308594 247.148438 176.316406 246.160156 175.097656 246.160156 L 169.191406 246.160156 C 170.039062 241.917969 170.707031 237.609375 171.183594 233.226562 L 180.667969 233.226562 C 181.890625 233.226562 182.882812 232.238281 182.882812 231.015625 C 182.882812 229.792969 181.890625 228.800781 180.667969 228.800781 L 171.597656 228.800781 C 171.871094 225.351562 172.019531 221.851562 172.066406 218.324219 L 174.664062 218.324219 C 179.195312 218.324219 182.882812 214.636719 182.882812 210.105469 L 182.882812 194.554688 C 182.882812 190.023438 179.195312 186.335938 174.664062 186.335938 L 161.332031 186.335938 L 168.769531 159.179688 L 178.421875 159.179688 C 182.113281 159.179688 185.210938 156.90625 186.320312 153.382812 C 187.425781 149.863281 186.183594 146.222656 183.15625 144.113281 L 174.433594 138.027344 L 174.433594 120.464844 Z M 72.109375 45.34375 C 72.109375 26.78125 86.320312 8.5 101.925781 6.992188 C 110.316406 6.179688 117.246094 9.742188 123.941406 13.191406 C 124.070312 13.261719 124.203125 13.328125 124.335938 13.394531 C 125.167969 16.261719 128.101562 24.066406 136.027344 27.28125 C 139.121094 28.539062 142.5 28.960938 145.640625 28.960938 C 151.890625 28.960938 157.210938 27.292969 157.542969 27.1875 C 158.707031 26.816406 159.347656 25.570312 158.976562 24.40625 C 158.605469 23.242188 157.363281 22.601562 156.195312 22.972656 C 156.089844 23.003906 145.433594 26.324219 137.695312 23.179688 C 134.0625 21.707031 131.761719 18.855469 130.351562 16.328125 C 134.011719 17.933594 137.703125 19.078125 141.703125 19.078125 C 148.03125 19.078125 153.585938 16.21875 159.464844 13.191406 C 166.160156 9.746094 173.085938 6.179688 181.480469 6.992188 C 197.082031 8.5 211.292969 26.78125 211.292969 45.34375 C 211.292969 55.386719 205.773438 67.703125 199.929688 80.742188 C 197.78125 85.53125 195.609375 90.386719 193.660156 95.238281 L 89.746094 95.238281 C 87.792969 90.386719 85.621094 85.53125 83.476562 80.742188 C 77.632812 67.703125 72.109375 55.386719 72.109375 45.34375 Z M 91.453125 99.664062 L 191.949219 99.664062 C 189.914062 105.175781 188.265625 110.664062 187.378906 116.039062 L 96.027344 116.039062 C 95.140625 110.664062 93.488281 105.175781 91.453125 99.664062 Z M 154.375 276.863281 L 129.027344 276.863281 C 127.625 273.941406 126.347656 270.960938 125.164062 267.941406 L 158.238281 267.941406 C 157.058594 270.960938 155.777344 273.941406 154.375 276.863281 Z M 159.882812 263.515625 L 123.519531 263.515625 C 122.042969 259.292969 120.777344 254.980469 119.71875 250.585938 L 163.683594 250.585938 C 162.628906 254.980469 161.359375 259.292969 159.882812 263.515625 Z M 164.671875 246.15625 L 118.734375 246.15625 C 117.859375 241.921875 117.171875 237.609375 116.683594 233.226562 L 166.722656 233.226562 C 166.230469 237.609375 165.542969 241.921875 164.671875 246.15625 Z M 167.152344 228.800781 L 116.25 228.800781 C 115.96875 225.351562 115.808594 221.855469 115.761719 218.320312 L 167.644531 218.320312 C 167.59375 221.855469 167.4375 225.351562 167.152344 228.800781 Z M 178.457031 194.554688 L 178.457031 210.105469 C 178.457031 212.195312 176.753906 213.894531 174.664062 213.894531 L 108.738281 213.894531 C 106.648438 213.894531 104.945312 212.195312 104.945312 210.105469 L 104.945312 194.554688 C 104.945312 192.464844 106.648438 190.765625 108.738281 190.765625 L 174.664062 190.765625 C 176.753906 190.765625 178.457031 192.464844 178.457031 194.554688 Z M 156.742188 186.335938 L 126.660156 186.335938 L 119.222656 159.179688 L 164.179688 159.179688 Z M 170.007812 136.972656 L 150.332031 136.972656 C 149.113281 136.972656 148.121094 137.960938 148.121094 139.183594 C 148.121094 140.40625 149.113281 141.398438 150.332031 141.398438 L 171.527344 141.398438 L 180.625 147.742188 C 182.335938 148.933594 182.507812 150.753906 182.097656 152.054688 C 181.6875 153.359375 180.507812 154.753906 178.421875 154.753906 L 104.980469 154.753906 C 102.894531 154.753906 101.714844 153.359375 101.304688 152.054688 C 100.894531 150.753906 101.066406 148.933594 102.777344 147.742188 L 111.875 141.398438 L 123.039062 141.398438 C 124.261719 141.398438 125.253906 140.40625 125.253906 139.183594 C 125.253906 137.960938 124.261719 136.972656 123.039062 136.972656 L 113.394531 136.972656 L 113.394531 120.464844 L 170.007812 120.464844 Z M 170.007812 136.972656 " fill-opacity="1" fill-rule="nonzero"/></g></svg>