<svg xmlns="http://www.w3.org/2000/svg" xmlns:xlink="http://www.w3.org/1999/xlink" width="378" zoomAndPan="magnify" viewBox="0 0 282.96 283.499989" height="378" preserveAspectRatio="xMidYMid meet" version="1.0"><defs><clipPath id="ae6a4b1b46"><path d="M 20 195 L 282.691406 195 L 282.691406 281.421875 L 20 281.421875 Z M 20 195 " clip-rule="nonzero"/></clipPath><clipPath id="fa25990f4e"><path d="M 0.230469 145 L 30 145 L 30 175 L 0.230469 175 Z M 0.230469 145 " clip-rule="nonzero"/></clipPath></defs><path fill="#daa748" d="M 166.304688 220.59375 L 141.503906 220.59375 C 131.121094 220.59375 115.71875 212.191406 115.71875 200.585938 L 115.71875 198.707031 C 115.71875 197.113281 117.015625 195.820312 118.609375 195.820312 C 120.203125 195.820312 121.496094 197.113281 121.496094 198.707031 L 121.496094 200.585938 C 121.496094 207.78125 132.953125 214.820312 141.503906 214.820312 L 166.304688 214.820312 C 173.96875 214.820312 184.828125 209.230469 187.34375 202.027344 C 187.375 201.9375 187.410156 201.847656 187.453125 201.757812 C 187.507812 201.585938 187.550781 201.417969 187.597656 201.242188 L 187.644531 201.25 C 187.65625 201.085938 187.675781 200.929688 187.707031 200.785156 C 187.722656 200.65625 187.742188 200.535156 187.769531 200.402344 C 187.789062 200.328125 187.792969 200.292969 187.796875 200.292969 C 187.796875 200.292969 187.796875 200.296875 187.796875 200.300781 C 187.800781 200.222656 187.8125 200.140625 187.828125 200.0625 C 187.828125 199.902344 187.855469 199.6875 187.882812 199.53125 C 187.914062 199.347656 187.902344 199.179688 187.902344 198.996094 L 187.902344 198.015625 C 187.902344 196.417969 189.195312 195.128906 190.789062 195.128906 C 192.382812 195.128906 193.675781 196.417969 193.675781 198.015625 L 193.675781 198.996094 C 193.675781 199.4375 193.667969 199.847656 193.609375 200.277344 C 193.597656 200.472656 193.578125 200.675781 193.546875 200.867188 C 193.523438 201.140625 193.476562 201.367188 193.4375 201.519531 C 193.425781 201.6875 193.398438 201.847656 193.359375 202.007812 C 193.3125 202.25 193.253906 202.476562 193.183594 202.714844 C 193.078125 203.113281 192.972656 203.476562 192.847656 203.832031 C 192.800781 203.976562 192.746094 204.113281 192.683594 204.246094 C 189.085938 213.894531 175.976562 220.59375 166.304688 220.59375 Z M 193.445312 201.308594 C 193.445312 201.308594 193.445312 201.3125 193.445312 201.316406 C 193.445312 201.3125 193.445312 201.308594 193.445312 201.308594 Z M 193.445312 201.308594 " fill-opacity="1" fill-rule="nonzero"/><path fill="#daa748" d="M 268.742188 223.453125 C 268.265625 223.453125 267.78125 223.332031 267.332031 223.082031 C 264.4375 221.453125 261.132812 220.59375 257.773438 220.59375 L 255.695312 220.59375 C 244.136719 220.59375 231.210938 211.359375 231.210938 198.996094 C 231.210938 197.398438 232.503906 195.964844 234.097656 195.964844 C 235.691406 195.964844 236.988281 197.113281 236.988281 198.707031 L 236.988281 198.996094 C 236.988281 207.761719 247.222656 214.820312 255.695312 214.820312 L 257.773438 214.820312 C 262.121094 214.820312 266.40625 215.9375 270.160156 218.046875 C 271.550781 218.828125 272.042969 220.589844 271.261719 221.980469 C 270.734375 222.925781 269.753906 223.453125 268.742188 223.453125 Z M 268.742188 223.453125 " fill-opacity="1" fill-rule="nonzero"/><g clip-path="url(#ae6a4b1b46)"><path fill="#daa748" d="M 257.773438 281.226562 L 45.847656 281.226562 C 31.839844 281.226562 20.441406 269.832031 20.441406 255.820312 L 20.441406 240.226562 C 20.441406 226.21875 31.839844 214.820312 45.847656 214.820312 L 55.289062 214.820312 C 62.332031 214.820312 69.886719 209.789062 71.890625 203.800781 C 71.898438 203.765625 71.90625 203.730469 71.917969 203.695312 L 72.089844 203.089844 C 72.117188 202.933594 72.144531 202.835938 72.191406 202.691406 C 72.21875 202.554688 72.277344 202.226562 72.335938 201.871094 C 72.339844 201.8125 72.34375 201.761719 72.347656 201.71875 C 72.390625 201.339844 72.410156 200.964844 72.410156 200.585938 L 72.410156 198.015625 C 72.410156 196.417969 73.703125 195.128906 75.296875 195.128906 C 76.890625 195.128906 78.1875 196.417969 78.1875 198.015625 L 78.1875 200.585938 C 78.1875 201.148438 78.15625 201.710938 78.09375 202.269531 C 78.085938 202.414062 78.074219 202.570312 78.054688 202.683594 C 77.945312 203.277344 77.851562 203.816406 77.722656 204.316406 C 77.710938 204.382812 77.632812 204.707031 77.609375 204.761719 L 77.511719 205.117188 C 77.492188 205.207031 77.46875 205.296875 77.441406 205.382812 C 74.746094 213.914062 65.011719 220.59375 55.289062 220.59375 L 45.847656 220.59375 C 35.019531 220.59375 26.214844 229.402344 26.214844 240.226562 L 26.214844 255.820312 C 26.214844 266.644531 35.019531 275.453125 45.847656 275.453125 L 257.773438 275.453125 C 268.601562 275.453125 277.410156 266.644531 277.410156 255.820312 L 277.410156 240.226562 C 277.410156 237.773438 276.96875 235.410156 276.105469 233.195312 C 275.523438 231.710938 276.257812 230.035156 277.742188 229.453125 C 279.238281 228.875 280.90625 229.609375 281.484375 231.09375 C 282.609375 233.980469 283.179688 237.054688 283.179688 240.226562 L 283.179688 255.820312 C 283.183594 269.832031 271.785156 281.226562 257.773438 281.226562 Z M 257.773438 281.226562 " fill-opacity="1" fill-rule="nonzero"/></g><path fill="#daa748" d="M 71.136719 32.3125 C 70.816406 32.3125 70.496094 32.261719 70.179688 32.148438 C 68.675781 31.621094 67.882812 29.976562 68.410156 28.472656 L 77.003906 3.949219 C 77.535156 2.445312 79.175781 1.640625 80.683594 2.183594 C 82.1875 2.710938 82.980469 4.355469 82.453125 5.859375 L 73.859375 30.382812 C 73.441406 31.570312 72.328125 32.3125 71.136719 32.3125 Z M 71.136719 32.3125 " fill-opacity="1" fill-rule="nonzero"/><path fill="#daa748" d="M 87.695312 24.351562 C 87.375 24.351562 87.054688 24.300781 86.738281 24.1875 L 62.214844 15.585938 C 60.710938 15.058594 59.921875 13.414062 60.445312 11.910156 C 60.976562 10.40625 62.613281 9.605469 64.128906 10.140625 L 88.648438 18.742188 C 90.152344 19.269531 90.945312 20.914062 90.417969 22.417969 C 90 23.605469 88.886719 24.351562 87.695312 24.351562 Z M 87.695312 24.351562 " fill-opacity="1" fill-rule="nonzero"/><g clip-path="url(#fa25990f4e)"><path fill="#daa748" d="M 14.664062 174.398438 C 6.707031 174.398438 0.230469 167.921875 0.230469 159.960938 C 0.230469 152 6.707031 145.523438 14.664062 145.523438 C 14.855469 145.523438 15.214844 145.523438 15.667969 145.632812 C 17.21875 146.011719 18.167969 147.574219 17.789062 149.125 C 17.433594 150.578125 16.058594 151.523438 14.585938 151.300781 C 9.828125 151.359375 6.003906 155.222656 6.003906 159.960938 C 6.003906 164.738281 9.890625 168.621094 14.664062 168.621094 C 19.183594 168.621094 22.976562 165.089844 23.308594 160.589844 C 23.421875 159 24.824219 157.804688 26.398438 157.917969 C 27.988281 158.035156 29.183594 159.417969 29.066406 161.007812 C 28.523438 168.515625 22.195312 174.398438 14.664062 174.398438 Z M 14.664062 174.398438 " fill-opacity="1" fill-rule="nonzero"/></g><path fill="#daa748" d="M 137.863281 128.199219 C 137.253906 128.199219 136.640625 128.011719 136.117188 127.613281 C 132.203125 124.628906 129.273438 120.273438 127.417969 114.671875 C 118.566406 88.121094 124.199219 78.523438 124.867188 77.515625 C 127.492188 73.527344 131.648438 71.128906 136.871094 70.597656 C 144.910156 69.796875 154.648438 73.542969 161.070312 79.964844 C 162.199219 81.09375 162.199219 82.917969 161.070312 84.046875 C 159.941406 85.175781 158.117188 85.175781 156.988281 84.046875 C 151.804688 78.867188 143.777344 75.703125 137.457031 76.34375 C 133.96875 76.699219 131.351562 78.167969 129.679688 80.707031 C 129.664062 80.742188 124.964844 89.070312 132.894531 112.855469 C 134.382812 117.339844 136.640625 120.753906 139.613281 123.019531 C 140.878906 123.988281 141.125 125.800781 140.160156 127.066406 C 139.59375 127.808594 138.734375 128.199219 137.863281 128.199219 Z M 137.863281 128.199219 " fill-opacity="1" fill-rule="nonzero"/><path fill="#daa748" d="M 166.164062 128.199219 C 165.207031 128.199219 164.273438 127.726562 163.722656 126.859375 C 162.871094 125.511719 163.269531 123.726562 164.617188 122.875 C 166.597656 121.621094 168.351562 119.996094 169.84375 118.046875 C 181.597656 102.601562 182.453125 93.570312 181.101562 88.714844 C 179.675781 83.59375 175.492188 81.882812 175.3125 81.8125 C 171.023438 80.523438 168.925781 81.414062 165.738281 82.761719 C 161.8125 84.429688 156.921875 86.5 147.003906 84.851562 C 145.433594 84.589844 144.371094 83.105469 144.632812 81.53125 C 144.894531 79.960938 146.378906 78.878906 147.953125 79.15625 C 156.210938 80.527344 159.910156 78.96875 163.484375 77.449219 C 167.03125 75.945312 170.699219 74.390625 177.1875 76.355469 C 177.648438 76.519531 184.34375 79.105469 186.621094 87.003906 C 189.191406 95.921875 185.09375 107.542969 174.4375 121.546875 C 172.527344 124.046875 170.265625 126.132812 167.710938 127.75 C 167.226562 128.054688 166.691406 128.199219 166.164062 128.199219 Z M 166.164062 128.199219 " fill-opacity="1" fill-rule="nonzero"/><path fill="#daa748" d="M 157.152344 180.171875 L 146.46875 180.171875 C 142.25 180.171875 138.820312 176.742188 138.820312 172.519531 L 138.820312 139.75 C 138.820312 138.152344 140.113281 136.863281 141.707031 136.863281 C 143.300781 136.863281 144.59375 138.152344 144.59375 139.75 L 144.59375 172.519531 C 144.59375 173.554688 145.4375 174.398438 146.46875 174.398438 L 157.152344 174.398438 C 158.1875 174.398438 159.03125 173.554688 159.03125 172.519531 L 159.03125 139.75 C 159.03125 138.152344 160.324219 136.863281 161.917969 136.863281 C 163.511719 136.863281 164.804688 138.152344 164.804688 139.75 L 164.804688 172.519531 C 164.804688 176.742188 161.371094 180.171875 157.152344 180.171875 Z M 157.152344 180.171875 " fill-opacity="1" fill-rule="nonzero"/><path fill="#daa748" d="M 141.707031 161.289062 C 140.839844 161.289062 139.984375 160.898438 139.417969 160.160156 C 138.445312 158.898438 138.683594 157.085938 139.949219 156.113281 L 160.160156 140.578125 C 161.421875 139.605469 163.234375 139.84375 164.207031 141.109375 C 165.175781 142.375 164.941406 144.183594 163.675781 145.15625 L 143.464844 160.691406 C 142.941406 161.09375 142.320312 161.289062 141.707031 161.289062 Z M 141.707031 161.289062 " fill-opacity="1" fill-rule="nonzero"/><path fill="#daa748" d="M 141.707031 172.839844 C 140.839844 172.839844 139.984375 172.449219 139.417969 171.710938 C 138.445312 170.445312 138.683594 168.632812 139.949219 167.660156 L 160.160156 152.128906 C 161.421875 151.15625 163.234375 151.394531 164.207031 152.660156 C 165.175781 153.921875 164.941406 155.734375 163.675781 156.707031 L 143.464844 172.242188 C 142.941406 172.644531 142.320312 172.839844 141.707031 172.839844 Z M 141.707031 172.839844 " fill-opacity="1" fill-rule="nonzero"/><path fill="#daa748" d="M 141.707031 151.730469 C 140.839844 151.730469 139.984375 151.34375 139.417969 150.601562 C 138.445312 149.339844 138.683594 147.527344 139.949219 146.554688 L 151.785156 137.460938 C 153.050781 136.488281 154.863281 136.726562 155.832031 137.992188 C 156.804688 139.257812 156.566406 141.070312 155.300781 142.039062 L 143.464844 151.132812 C 142.941406 151.539062 142.320312 151.730469 141.707031 151.730469 Z M 141.707031 151.730469 " fill-opacity="1" fill-rule="nonzero"/><path fill="#daa748" d="M 147.191406 180.171875 C 146.324219 180.171875 145.472656 179.78125 144.902344 179.042969 C 143.933594 177.777344 144.167969 175.96875 145.433594 174.996094 L 160.160156 163.675781 C 161.421875 162.707031 163.234375 162.945312 164.207031 164.207031 C 165.175781 165.472656 164.941406 167.28125 163.675781 168.257812 L 148.949219 179.574219 C 148.429688 179.976562 147.808594 180.171875 147.191406 180.171875 Z M 147.191406 180.171875 " fill-opacity="1" fill-rule="nonzero"/><path fill="#daa748" d="M 167.691406 142.636719 L 135.929688 142.636719 C 134.335938 142.636719 133.042969 141.347656 133.042969 139.75 L 133.042969 125.3125 C 133.042969 123.714844 134.335938 122.425781 135.929688 122.425781 L 167.691406 122.425781 C 169.285156 122.425781 170.578125 123.714844 170.578125 125.3125 L 170.578125 139.75 C 170.578125 141.347656 169.285156 142.636719 167.691406 142.636719 Z M 138.820312 136.863281 L 164.804688 136.863281 L 164.804688 128.199219 L 138.820312 128.199219 Z M 138.820312 136.863281 " fill-opacity="1" fill-rule="nonzero"/><path fill="#daa748" d="M 216.777344 226.367188 C 188.320312 226.367188 183.191406 182.765625 182.304688 164.023438 C 182.039062 158.582031 185.5 153.660156 190.722656 152.058594 C 196.507812 150.25 205.265625 147.972656 214.050781 147.40625 C 215.6875 147.347656 217.015625 148.511719 217.117188 150.105469 C 217.21875 151.699219 216.011719 153.070312 214.417969 153.171875 C 206.203125 153.703125 197.925781 155.859375 192.429688 157.574219 C 189.722656 158.40625 187.933594 160.941406 188.074219 163.746094 C 188.703125 177.054688 192.617188 220.402344 216.617188 220.589844 C 228.488281 219.117188 234.90625 188.769531 236.792969 163.152344 C 236.910156 161.324219 236.230469 159.5 234.964844 158.292969 C 233.46875 156.84375 231.660156 155.722656 229.417969 154.851562 C 227.929688 154.277344 227.191406 152.601562 227.769531 151.113281 C 228.347656 149.628906 230.023438 148.898438 231.507812 149.46875 C 234.480469 150.625 236.921875 152.152344 238.964844 154.132812 C 241.472656 156.523438 242.785156 159.964844 242.550781 163.550781 C 241.207031 181.789062 236.039062 224.367188 217.074219 226.347656 C 216.976562 226.363281 216.875 226.367188 216.777344 226.367188 Z M 216.777344 226.367188 " fill-opacity="1" fill-rule="nonzero"/><path fill="#daa748" d="M 101.285156 226.367188 C 72.828125 226.367188 67.695312 182.773438 66.8125 164.027344 C 66.558594 158.597656 70.007812 153.675781 75.207031 152.050781 C 88.222656 147.984375 111.800781 142.851562 123.46875 154.117188 C 126.003906 156.566406 127.308594 160.015625 127.050781 163.582031 C 125.722656 181.789062 120.585938 224.351562 101.589844 226.347656 C 101.484375 226.363281 101.386719 226.367188 101.285156 226.367188 Z M 102.515625 153.046875 C 92.917969 153.046875 82.539062 155.8125 76.925781 157.5625 C 74.234375 158.402344 72.449219 160.949219 72.582031 163.757812 C 73.207031 177.058594 77.125 220.402344 101.125 220.59375 C 113.023438 219.105469 119.421875 188.773438 121.289062 163.164062 C 121.421875 161.308594 120.753906 159.527344 119.453125 158.273438 C 115.414062 154.371094 109.152344 153.046875 102.515625 153.046875 Z M 76.066406 154.808594 L 76.09375 154.808594 Z M 76.066406 154.808594 " fill-opacity="1" fill-rule="nonzero"/><path fill="#daa748" d="M 214.621094 168.644531 C 206.140625 168.644531 196.710938 167.402344 194.390625 164.75 C 193.339844 163.550781 193.460938 161.726562 194.660156 160.675781 C 195.820312 159.664062 197.566406 159.742188 198.625 160.828125 C 201.910156 162.988281 221.800781 163.597656 225.652344 161.75 C 226.085938 160.699219 227.117188 159.960938 228.324219 159.960938 C 228.328125 159.960938 228.328125 159.960938 228.328125 159.960938 C 229.921875 159.964844 231.214844 161.253906 231.210938 162.851562 C 231.210938 163.957031 230.734375 165.988281 227.542969 167.1875 C 224.988281 168.144531 219.996094 168.644531 214.621094 168.644531 Z M 214.621094 168.644531 " fill-opacity="1" fill-rule="nonzero"/><path fill="#daa748" d="M 97.933594 165.757812 C 93.273438 165.757812 88.292969 164.726562 82.921875 162.65625 C 81.429688 162.082031 80.691406 160.414062 81.265625 158.925781 C 81.839844 157.433594 83.511719 156.703125 84.996094 157.265625 C 94.214844 160.820312 101.941406 160.863281 108.613281 157.398438 C 110.03125 156.667969 111.777344 157.222656 112.507812 158.636719 C 113.242188 160.050781 112.6875 161.792969 111.273438 162.527344 C 107.121094 164.679688 102.695312 165.757812 97.933594 165.757812 Z M 97.933594 165.757812 " fill-opacity="1" fill-rule="nonzero"/><path fill="#daa748" d="M 196.5625 93.554688 C 195.890625 93.554688 195.210938 93.320312 194.660156 92.839844 C 193.460938 91.789062 193.339844 89.964844 194.390625 88.765625 L 214.601562 65.667969 C 215.652344 64.464844 217.472656 64.34375 218.675781 65.394531 C 219.875 66.445312 219.996094 68.269531 218.945312 69.46875 L 198.734375 92.566406 C 198.167969 93.222656 197.367188 93.554688 196.5625 93.554688 Z M 196.5625 93.554688 " fill-opacity="1" fill-rule="nonzero"/><path fill="#daa748" d="M 227.371094 88.097656 C 226.277344 88.097656 225.234375 87.472656 224.746094 86.414062 C 224.082031 84.964844 224.714844 83.25 226.167969 82.585938 L 264.65625 64.941406 C 266.101562 64.285156 267.816406 64.914062 268.484375 66.363281 C 269.148438 67.8125 268.511719 69.527344 267.0625 70.191406 L 228.574219 87.832031 C 228.1875 88.011719 227.777344 88.097656 227.371094 88.097656 Z M 227.371094 88.097656 " fill-opacity="1" fill-rule="nonzero"/><path fill="#daa748" d="M 196.566406 102.214844 C 195.472656 102.214844 194.425781 101.589844 193.941406 100.527344 C 193.277344 99.078125 193.914062 97.363281 195.363281 96.703125 L 215.171875 87.636719 C 216.621094 86.976562 218.335938 87.609375 218.996094 89.0625 C 219.660156 90.511719 219.023438 92.226562 217.574219 92.886719 L 197.765625 101.953125 C 197.375 102.132812 196.96875 102.214844 196.566406 102.214844 Z M 196.566406 102.214844 " fill-opacity="1" fill-rule="nonzero"/><path fill="#daa748" d="M 199.449219 110.878906 C 197.949219 110.878906 196.679688 109.714844 196.570312 108.195312 C 196.457031 106.605469 197.652344 105.222656 199.242188 105.109375 L 239.664062 102.222656 C 241.292969 102.121094 242.636719 103.304688 242.753906 104.898438 C 242.863281 106.488281 241.667969 107.867188 240.078125 107.980469 L 199.65625 110.867188 C 199.585938 110.875 199.519531 110.878906 199.449219 110.878906 Z M 199.449219 110.878906 " fill-opacity="1" fill-rule="nonzero"/><path fill="#daa748" d="M 115.71875 93.554688 C 114.917969 93.554688 114.117188 93.222656 113.546875 92.566406 L 93.335938 69.46875 C 92.285156 68.269531 92.40625 66.445312 93.605469 65.394531 C 94.808594 64.339844 96.628906 64.460938 97.679688 65.667969 L 117.890625 88.765625 C 118.941406 89.964844 118.820312 91.789062 117.621094 92.839844 C 117.074219 93.320312 116.394531 93.554688 115.71875 93.554688 Z M 115.71875 93.554688 " fill-opacity="1" fill-rule="nonzero"/><path fill="#daa748" d="M 89.617188 90.261719 C 89.210938 90.261719 88.804688 90.179688 88.414062 90 L 45.21875 70.191406 C 43.769531 69.527344 43.132812 67.8125 43.796875 66.363281 C 44.460938 64.910156 46.175781 64.277344 47.625 64.941406 L 90.820312 84.75 C 92.269531 85.414062 92.90625 87.128906 92.242188 88.578125 C 91.757812 89.640625 90.710938 90.261719 89.617188 90.261719 Z M 89.617188 90.261719 " fill-opacity="1" fill-rule="nonzero"/><path fill="#daa748" d="M 115.71875 102.214844 C 115.316406 102.214844 114.910156 102.132812 114.519531 101.953125 L 97.628906 94.214844 C 96.179688 93.550781 95.542969 91.839844 96.207031 90.390625 C 96.867188 88.9375 98.578125 88.300781 100.035156 88.964844 L 116.925781 96.703125 C 118.375 97.367188 119.011719 99.078125 118.347656 100.527344 C 117.859375 101.589844 116.8125 102.214844 115.71875 102.214844 Z M 115.71875 102.214844 " fill-opacity="1" fill-rule="nonzero"/><path fill="#daa748" d="M 112.835938 110.878906 C 112.765625 110.878906 112.699219 110.875 112.628906 110.867188 L 72.207031 107.980469 C 70.617188 107.867188 69.421875 106.484375 69.53125 104.898438 C 69.648438 103.304688 71.03125 102.117188 72.621094 102.222656 L 113.042969 105.109375 C 114.632812 105.222656 115.828125 106.605469 115.714844 108.195312 C 115.605469 109.714844 114.335938 110.878906 112.835938 110.878906 Z M 112.835938 110.878906 " fill-opacity="1" fill-rule="nonzero"/><path fill="#daa748" d="M 276.414062 147.453125 C 281.988281 147.453125 282 138.792969 276.414062 138.792969 C 270.84375 138.792969 270.835938 147.453125 276.414062 147.453125 Z M 276.414062 147.453125 " fill-opacity="1" fill-rule="nonzero"/><path fill="#daa748" d="M 241.179688 31.8125 C 240.882812 31.8125 240.578125 31.769531 240.28125 31.671875 C 238.765625 31.171875 237.9375 29.546875 238.4375 28.027344 C 239.058594 26.117188 239.976562 24.351562 241.144531 22.777344 C 239.792969 22.507812 238.460938 22.09375 237.167969 21.519531 C 235.871094 20.949219 234.65625 20.246094 233.542969 19.417969 C 233.222656 21.042969 232.683594 22.640625 231.929688 24.152344 C 231.21875 25.578125 229.484375 26.164062 228.058594 25.445312 C 226.632812 24.734375 226.050781 23 226.761719 21.574219 C 228.40625 18.277344 228.574219 14.570312 227.246094 11.132812 C 226.667969 9.644531 227.40625 7.972656 228.890625 7.398438 C 230.375 6.820312 232.050781 7.554688 232.625 9.046875 C 233.886719 12.28125 236.324219 14.835938 239.496094 16.234375 C 242.664062 17.628906 246.195312 17.714844 249.441406 16.453125 C 250.921875 15.878906 252.59375 16.617188 253.175781 18.101562 C 253.753906 19.589844 253.015625 21.261719 251.53125 21.839844 C 247.894531 23.246094 245.121094 26.160156 243.921875 29.820312 C 243.523438 31.042969 242.394531 31.8125 241.179688 31.8125 Z M 241.179688 31.8125 " fill-opacity="1" fill-rule="nonzero"/></svg>