<svg xmlns="http://www.w3.org/2000/svg" xmlns:xlink="http://www.w3.org/1999/xlink" width="378" zoomAndPan="magnify" viewBox="0 0 283.5 283.500005" height="378" preserveAspectRatio="xMidYMid meet" version="1.0"><defs><clipPath id="883ceac6aa"><path d="M 1.40625 119 L 281.449219 119 L 281.449219 141 L 1.40625 141 Z M 1.40625 119 " clip-rule="nonzero"/></clipPath></defs><path fill="#daa748" d="M 59.675781 205.027344 C 53.601562 205.027344 47.691406 198.300781 43.425781 186.152344 C 37.351562 169.738281 35.710938 146.925781 35.21875 137.734375 C 35.21875 135.925781 36.53125 134.449219 38.335938 134.285156 C 40.144531 134.285156 41.621094 135.597656 41.785156 137.40625 C 42.113281 144.296875 43.753906 167.933594 49.5 184.019531 C 53.4375 194.851562 58.035156 198.628906 59.839844 198.464844 C 61.152344 198.464844 64.105469 195.507812 65.746094 185.496094 C 69.523438 164.980469 76.253906 153.65625 84.789062 153.65625 C 93.324219 153.65625 100.050781 164.980469 103.664062 185.496094 C 105.46875 195.507812 108.257812 198.464844 109.738281 198.464844 C 111.707031 198.628906 115.972656 194.851562 119.914062 184.019531 C 125.820312 167.933594 127.464844 144.296875 127.792969 137.40625 C 127.792969 135.597656 129.433594 134.285156 131.238281 134.285156 C 133.042969 134.449219 134.355469 135.925781 134.355469 137.734375 C 133.863281 146.925781 132.058594 169.738281 126.148438 186.152344 C 121.554688 198.792969 115.480469 205.523438 109.246094 205.027344 C 103.335938 204.535156 99.394531 198.464844 97.261719 186.644531 C 93.488281 165.636719 87.414062 160.21875 84.789062 160.21875 C 82.160156 160.21875 76.089844 165.636719 72.3125 186.644531 C 70.179688 198.464844 66.242188 204.535156 60.332031 205.027344 C 60.167969 205.027344 59.839844 205.027344 59.675781 205.027344 Z M 28.980469 125.914062 C 27.667969 125.914062 26.191406 124.929688 25.863281 123.453125 C 23.074219 112.785156 25.699219 100.800781 32.265625 92.757812 C 37.023438 86.851562 46.050781 80.121094 62.464844 81.105469 C 64.597656 81.269531 66.734375 81.597656 69.523438 82.417969 C 71.328125 82.910156 72.804688 83.402344 74.28125 83.730469 C 84.789062 86.851562 84.789062 86.851562 95.949219 83.566406 L 99.722656 82.417969 C 102.679688 81.597656 104.976562 81.269531 107.109375 81.105469 C 123.523438 80.121094 132.550781 86.851562 137.3125 92.757812 C 143.878906 100.800781 146.339844 112.785156 143.714844 123.453125 C 143.21875 125.09375 141.414062 126.242188 139.609375 125.75 C 137.96875 125.257812 136.820312 123.453125 137.3125 121.648438 C 139.609375 113.113281 137.476562 103.429688 132.222656 96.863281 C 126.808594 90.296875 118.273438 87.015625 107.4375 87.671875 C 105.796875 87.671875 103.992188 88 101.695312 88.820312 L 97.753906 89.804688 C 85.117188 93.582031 84.460938 93.582031 72.3125 90.132812 C 71 89.640625 69.523438 89.148438 67.71875 88.65625 C 65.417969 88 63.613281 87.671875 62.136719 87.671875 C 51.304688 87.015625 42.769531 90.296875 37.351562 96.863281 C 31.9375 103.429688 29.964844 113.113281 32.265625 121.648438 C 32.757812 123.453125 31.609375 125.257812 29.800781 125.75 C 29.636719 125.75 29.308594 125.914062 28.980469 125.914062 Z M 28.980469 125.914062 " fill-opacity="1" fill-rule="evenodd"/><path fill="#daa748" d="M 223.320312 205.027344 C 222.992188 205.027344 222.828125 205.027344 222.5 205.027344 C 216.753906 204.535156 212.816406 198.464844 210.679688 186.644531 C 206.90625 165.636719 200.832031 160.21875 198.207031 160.21875 C 195.582031 160.21875 189.507812 165.636719 185.730469 186.644531 C 183.597656 198.464844 179.660156 204.535156 173.75 205.027344 C 167.511719 205.6875 161.277344 198.792969 156.84375 186.152344 C 150.605469 169.410156 148.964844 144.957031 148.636719 137.734375 C 148.472656 135.925781 149.949219 134.449219 151.753906 134.285156 C 153.5625 134.285156 155.039062 135.597656 155.203125 137.40625 C 155.53125 144.296875 157.171875 167.933594 162.917969 184.019531 C 166.855469 194.851562 171.289062 198.628906 173.257812 198.464844 C 174.570312 198.464844 177.359375 195.507812 179.167969 185.496094 C 182.941406 164.980469 189.671875 153.65625 198.207031 153.65625 C 206.742188 153.65625 213.472656 164.980469 217.082031 185.496094 C 218.886719 195.507812 221.679688 198.464844 223.15625 198.464844 C 224.960938 198.628906 229.390625 194.851562 233.332031 184.019531 C 239.242188 167.933594 240.882812 144.296875 241.210938 137.40625 C 241.210938 135.597656 242.851562 134.285156 244.65625 134.285156 C 246.460938 134.449219 247.777344 135.925781 247.777344 137.734375 C 247.285156 144.957031 245.640625 169.410156 239.570312 186.152344 C 235.136719 198.300781 229.226562 205.027344 223.320312 205.027344 Z M 142.398438 125.914062 C 141.085938 125.914062 139.609375 124.929688 139.28125 123.453125 C 136.492188 112.785156 138.953125 100.800781 145.683594 92.757812 C 150.441406 86.851562 159.46875 80.121094 175.882812 81.105469 C 178.015625 81.269531 180.316406 81.597656 183.105469 82.417969 L 187.046875 83.566406 C 198.207031 86.851562 198.207031 86.851562 208.710938 83.730469 C 210.023438 83.402344 211.664062 82.910156 213.472656 82.417969 C 216.097656 81.597656 218.394531 81.269531 220.527344 81.105469 C 236.941406 80.121094 245.96875 86.851562 250.730469 92.757812 C 257.296875 100.800781 259.757812 112.785156 257.132812 123.453125 C 256.640625 125.09375 254.832031 126.242188 253.027344 125.75 C 251.222656 125.257812 250.238281 123.453125 250.730469 121.648438 C 252.863281 113.113281 250.894531 103.429688 245.640625 96.863281 C 240.226562 90.296875 231.691406 87.015625 220.855469 87.671875 C 219.214844 87.671875 217.410156 88 215.277344 88.65625 C 213.472656 89.148438 211.992188 89.640625 210.515625 90.132812 C 198.535156 93.582031 197.714844 93.582031 185.074219 89.804688 L 181.300781 88.820312 C 179.003906 88 177.195312 87.671875 175.554688 87.671875 C 164.722656 87.015625 156.1875 90.296875 150.769531 96.863281 C 145.355469 103.429688 143.382812 113.113281 145.683594 121.648438 C 146.175781 123.453125 145.027344 125.257812 143.21875 125.75 C 143.054688 125.75 142.726562 125.914062 142.398438 125.914062 Z M 142.398438 125.914062 " fill-opacity="1" fill-rule="evenodd"/><g clip-path="url(#883ceac6aa)"><path fill="#daa748" d="M 278.304688 140.851562 L 218.558594 140.851562 C 216.753906 140.851562 215.277344 139.375 215.277344 137.570312 C 215.277344 135.761719 216.753906 134.285156 218.558594 134.285156 L 275.023438 134.285156 L 275.023438 125.914062 L 218.558594 125.914062 C 216.753906 125.914062 215.277344 124.4375 215.277344 122.632812 C 215.277344 120.664062 216.753906 119.351562 218.558594 119.351562 L 278.304688 119.351562 C 280.109375 119.351562 281.585938 120.664062 281.585938 122.632812 L 281.585938 137.570312 C 281.585938 139.375 280.109375 140.851562 278.304688 140.851562 Z M 177.851562 140.851562 L 105.140625 140.851562 C 103.335938 140.851562 101.859375 139.375 101.859375 137.570312 C 101.859375 135.761719 103.335938 134.285156 105.140625 134.285156 L 177.851562 134.285156 C 179.660156 134.285156 181.136719 135.761719 181.136719 137.570312 C 181.136719 139.375 179.660156 140.851562 177.851562 140.851562 Z M 64.433594 140.851562 L 4.6875 140.851562 C 2.882812 140.851562 1.40625 139.375 1.40625 137.570312 L 1.40625 122.632812 C 1.40625 120.664062 2.882812 119.351562 4.6875 119.351562 L 64.433594 119.351562 C 66.242188 119.351562 67.71875 120.664062 67.71875 122.632812 C 67.71875 124.4375 66.242188 125.914062 64.433594 125.914062 L 7.972656 125.914062 L 7.972656 134.285156 L 64.433594 134.285156 C 66.242188 134.285156 67.71875 135.761719 67.71875 137.570312 C 67.71875 139.375 66.242188 140.851562 64.433594 140.851562 Z M 177.851562 125.914062 L 105.140625 125.914062 C 103.335938 125.914062 101.859375 124.4375 101.859375 122.632812 C 101.859375 120.664062 103.335938 119.351562 105.140625 119.351562 L 177.851562 119.351562 C 179.660156 119.351562 181.136719 120.664062 181.136719 122.632812 C 181.136719 124.4375 179.660156 125.914062 177.851562 125.914062 Z M 177.851562 125.914062 " fill-opacity="1" fill-rule="evenodd"/></g><path fill="#daa748" d="M 105.140625 147.417969 L 64.433594 147.417969 C 62.628906 147.417969 61.152344 145.941406 61.152344 144.132812 L 61.152344 116.066406 C 61.152344 114.261719 62.628906 112.785156 64.433594 112.785156 L 105.140625 112.785156 C 106.945312 112.785156 108.421875 114.261719 108.421875 116.066406 L 108.421875 144.132812 C 108.421875 145.941406 106.945312 147.417969 105.140625 147.417969 Z M 67.71875 140.851562 L 101.859375 140.851562 L 101.859375 119.351562 L 67.71875 119.351562 Z M 67.71875 140.851562 " fill-opacity="1" fill-rule="evenodd"/><path fill="#daa748" d="M 84.789062 147.417969 C 82.980469 147.417969 81.503906 145.941406 81.503906 144.132812 L 81.503906 116.066406 C 81.503906 114.261719 82.980469 112.785156 84.789062 112.785156 C 86.59375 112.785156 88.070312 114.261719 88.070312 116.066406 L 88.070312 144.132812 C 88.070312 145.941406 86.59375 147.417969 84.789062 147.417969 Z M 84.789062 147.417969 " fill-opacity="1" fill-rule="evenodd"/><path fill="#daa748" d="M 218.558594 147.417969 L 177.851562 147.417969 C 176.046875 147.417969 174.570312 145.941406 174.570312 144.132812 L 174.570312 116.066406 C 174.570312 114.261719 176.046875 112.785156 177.851562 112.785156 L 218.558594 112.785156 C 220.363281 112.785156 221.84375 114.261719 221.84375 116.066406 L 221.84375 144.132812 C 221.84375 145.941406 220.363281 147.417969 218.558594 147.417969 Z M 181.136719 140.851562 L 215.277344 140.851562 L 215.277344 119.351562 L 181.136719 119.351562 Z M 181.136719 140.851562 " fill-opacity="1" fill-rule="evenodd"/><path fill="#daa748" d="M 198.207031 147.417969 C 196.402344 147.417969 194.921875 145.941406 194.921875 144.132812 L 194.921875 116.066406 C 194.921875 114.261719 196.402344 112.785156 198.207031 112.785156 C 200.011719 112.785156 201.488281 114.261719 201.488281 116.066406 L 201.488281 144.132812 C 201.488281 145.941406 200.011719 147.417969 198.207031 147.417969 Z M 198.207031 147.417969 " fill-opacity="1" fill-rule="evenodd"/></svg>