<svg xmlns="http://www.w3.org/2000/svg" xmlns:xlink="http://www.w3.org/1999/xlink" width="378" zoomAndPan="magnify" viewBox="0 0 282.96 283.499989" height="378" preserveAspectRatio="xMidYMid meet" version="1.0"><defs><clipPath id="1a5f0640f6"><path d="M 0.230469 166 L 282.691406 166 L 282.691406 189 L 0.230469 189 Z M 0.230469 166 " clip-rule="nonzero"/></clipPath></defs><path fill="#daa748" d="M 126.558594 162.019531 C 125.894531 162.019531 125.234375 161.777344 124.75 161.257812 L 114.480469 150.984375 C 113.476562 149.984375 113.476562 148.378906 114.480469 147.375 C 115.484375 146.371094 117.089844 146.371094 118.09375 147.375 L 126.558594 155.820312 L 135.023438 147.375 C 136.023438 146.371094 137.628906 146.371094 138.632812 147.375 C 139.636719 148.378906 139.636719 149.984375 138.632812 150.984375 L 128.363281 161.257812 C 127.882812 161.777344 127.21875 162.019531 126.558594 162.019531 " fill-opacity="1" fill-rule="nonzero"/><path fill="#daa748" d="M 126.558594 162.019531 C 125.132812 162.019531 123.988281 160.875 123.988281 159.449219 L 123.988281 118.367188 C 123.988281 116.945312 125.132812 115.800781 126.558594 115.800781 C 127.980469 115.800781 129.125 116.945312 129.125 118.367188 L 129.125 159.449219 C 129.125 160.875 127.980469 162.019531 126.558594 162.019531 " fill-opacity="1" fill-rule="nonzero"/><path fill="#daa748" d="M 71.753906 92.691406 L 71.8125 92.691406 Z M 25.835938 90.828125 C 28.804688 92.429688 44.875 99.972656 69.847656 90.664062 C 74.863281 79.371094 74.804688 71.386719 74.722656 62.179688 L 74.703125 58.75 C 74.703125 46.875 45.796875 28.5 36.992188 28.5 C 29.789062 28.5 24.070312 31.851562 20.421875 38.167969 C 13.160156 50.707031 15.386719 72.292969 25.835938 90.828125 Z M 45.996094 100.433594 C 31.433594 100.433594 23.070312 95.179688 22.546875 94.839844 C 22.207031 94.636719 21.925781 94.335938 21.726562 93.976562 C 9.929688 73.476562 7.625 50.003906 15.96875 35.582031 C 20.523438 27.699219 27.984375 23.367188 36.96875 23.367188 C 46.878906 23.367188 79.839844 43.023438 79.839844 58.75 L 79.859375 62.140625 C 79.9375 71.789062 80 80.917969 74.082031 93.773438 C 73.800781 94.375 73.296875 94.839844 72.675781 95.097656 C 62.324219 99.070312 53.378906 100.433594 45.996094 100.433594 " fill-opacity="1" fill-rule="nonzero"/><path fill="#daa748" d="M 49.527344 254.453125 C 35.507812 254.453125 25.957031 194.476562 23.371094 176.082031 C 23.167969 174.675781 24.152344 173.390625 25.554688 173.191406 C 26.980469 173.011719 28.246094 173.972656 28.445312 175.378906 C 33.480469 211.085938 43.148438 249.316406 49.527344 249.316406 C 54.242188 249.316406 56.308594 228.9375 57.652344 215.457031 C 59.277344 199.269531 60.820312 183.984375 65.875 177.34375 C 66.738281 176.21875 68.34375 176 69.488281 176.863281 C 70.609375 177.726562 70.832031 179.328125 69.96875 180.472656 C 65.777344 185.949219 64.171875 201.898438 62.765625 215.980469 C 60.601562 237.460938 58.894531 254.453125 49.527344 254.453125 " fill-opacity="1" fill-rule="nonzero"/><g clip-path="url(#1a5f0640f6)"><path fill="#daa748" d="M 47.421875 188.355469 C 32.496094 188.355469 23.972656 177.445312 23.851562 177.285156 C 23.53125 176.800781 17.992188 168.839844 3.910156 172.207031 C 2.546875 172.570312 1.144531 171.707031 0.804688 170.324219 C 0.480469 168.9375 1.324219 167.554688 2.707031 167.234375 C 20.480469 162.960938 27.761719 173.875 28.0625 174.335938 C 28.523438 174.917969 42.386719 192.429688 66.519531 176.742188 C 72.035156 173.191406 74.480469 172.289062 82.484375 172.289062 C 85.816406 172.289062 90.910156 173.132812 97.390625 174.175781 C 106.195312 175.640625 117.167969 177.425781 126.558594 177.425781 C 139.734375 177.425781 151.332031 173.433594 159.796875 170.503906 C 165.210938 168.636719 169.503906 167.152344 172.773438 167.152344 C 180.035156 167.152344 185.792969 171.40625 187.296875 172.628906 C 190.488281 173.832031 216.40625 182.878906 253.855469 172.488281 C 255.921875 171.164062 265.511719 165.710938 280.855469 167.171875 C 282.28125 167.292969 283.304688 168.558594 283.164062 169.960938 C 283.042969 171.386719 281.777344 172.390625 280.375 172.269531 C 265.289062 170.804688 256.503906 176.882812 256.421875 176.941406 C 256.183594 177.125 255.921875 177.242188 255.640625 177.324219 C 213.738281 189.097656 186.113281 177.703125 184.972656 177.222656 C 184.710938 177.125 184.46875 176.960938 184.269531 176.78125 C 184.207031 176.722656 179.09375 172.289062 172.773438 172.289062 C 170.367188 172.289062 166.234375 173.714844 161.460938 175.359375 C 152.65625 178.40625 140.597656 182.558594 126.558594 182.558594 C 116.746094 182.558594 105.554688 180.734375 96.546875 179.25 C 90.570312 178.265625 85.394531 177.425781 82.484375 177.425781 C 75.203125 177.425781 73.859375 178.125 69.308594 181.074219 C 61.003906 186.449219 53.660156 188.355469 47.421875 188.355469 " fill-opacity="1" fill-rule="nonzero"/></g><path fill="#daa748" d="M 221.539062 191.585938 C 227.136719 191.585938 231.429688 193.332031 234.335938 196.78125 C 241.378906 205.125 238.589844 221.59375 236.144531 236.140625 C 234.558594 245.507812 232.753906 256.117188 235.140625 258.945312 C 235.421875 259.269531 235.820312 259.589844 236.867188 259.589844 C 240.035156 259.589844 243.042969 257.804688 245.792969 254.292969 C 257.105469 239.789062 260.273438 201.335938 254.9375 180.03125 C 254.476562 178.226562 254.636719 176.121094 255.421875 173.453125 C 254.679688 170.363281 251.429688 156.902344 246.695312 140.472656 C 245.890625 137.765625 242.019531 136.34375 238.609375 136.34375 L 203.207031 136.34375 C 199.796875 136.34375 195.921875 137.765625 195.121094 140.472656 C 190.386719 156.941406 188.121094 170.222656 187.660156 173.089844 C 188.339844 175.257812 188.703125 176.941406 188.179688 179.007812 C 182.765625 200.632812 185.992188 239.648438 197.449219 254.351562 C 200.175781 257.824219 203.125 259.589844 206.253906 259.589844 C 207.296875 259.589844 207.699219 259.269531 207.980469 258.945312 C 210.367188 256.117188 208.5625 245.507812 206.976562 236.140625 C 204.507812 221.59375 201.742188 205.125 208.78125 196.78125 C 211.691406 193.332031 215.984375 191.585938 221.539062 191.585938 Z M 236.867188 264.722656 C 233.917969 264.722656 232.171875 263.378906 231.230469 262.257812 C 227.296875 257.621094 228.960938 247.773438 231.066406 235.296875 C 233.355469 221.855469 235.921875 206.609375 230.425781 200.089844 C 228.5 197.824219 225.613281 196.722656 221.578125 196.722656 C 217.507812 196.722656 214.621094 197.824219 212.695312 200.089844 C 207.195312 206.609375 209.765625 221.855469 212.050781 235.296875 C 214.15625 247.773438 215.824219 257.621094 211.890625 262.257812 C 210.949219 263.378906 209.203125 264.722656 206.253906 264.722656 C 201.480469 264.722656 197.148438 262.296875 193.417969 257.503906 C 180.757812 241.292969 177.46875 200.632812 183.207031 177.785156 C 183.40625 176.941406 183.304688 176.300781 182.582031 174.074219 C 182.464844 173.714844 182.445312 173.3125 182.484375 172.910156 C 182.523438 172.769531 184.75 157.945312 190.207031 139.050781 C 191.769531 133.632812 197.871094 131.207031 203.207031 131.207031 L 238.609375 131.207031 C 243.964844 131.207031 250.042969 133.632812 251.609375 139.050781 C 257.046875 157.847656 260.554688 172.808594 260.574219 172.949219 C 260.695312 173.414062 260.675781 173.875 260.535156 174.335938 C 259.894531 176.339844 259.671875 177.84375 259.914062 178.808594 C 265.570312 201.335938 262.339844 241.453125 249.84375 257.441406 C 246.074219 262.277344 241.699219 264.722656 236.867188 264.722656 " fill-opacity="1" fill-rule="nonzero"/><path fill="#daa748" d="M 67.382812 182.558594 C 66.917969 182.558594 66.4375 182.4375 66.035156 182.179688 C 64.972656 181.515625 64.550781 180.210938 64.972656 179.089844 C 65.09375 177.285156 63.648438 168.777344 59.078125 150.285156 C 58.535156 148.117188 56.570312 146.613281 54.300781 146.613281 L 40.800781 146.613281 C 38.515625 146.613281 36.527344 148.117188 35.96875 150.304688 L 28.945312 177.585938 C 28.585938 178.949219 27.179688 179.792969 25.816406 179.429688 C 24.433594 179.070312 23.609375 177.664062 23.972656 176.300781 L 30.992188 149.019531 C 32.136719 144.566406 36.167969 141.476562 40.800781 141.476562 L 54.300781 141.476562 C 58.9375 141.476562 62.949219 144.585938 64.050781 149.039062 C 71.332031 178.46875 70.308594 180.132812 69.566406 181.335938 C 69.066406 182.117188 68.242188 182.558594 67.382812 182.558594 " fill-opacity="1" fill-rule="nonzero"/><path fill="#daa748" d="M 89.144531 90.546875 C 114.300781 96.742188 137.75 96.765625 160.738281 90.585938 C 161.21875 89.101562 161.78125 87.417969 162.402344 85.609375 C 165.753906 75.601562 170.828125 60.496094 170.828125 51.949219 C 170.828125 40.457031 165.894531 23.367188 152.253906 23.367188 C 144.589844 23.367188 140.359375 26.214844 136.285156 28.960938 C 133.21875 31.027344 130.046875 33.175781 125.875 33.457031 C 125.59375 33.574219 125.273438 33.636719 124.933594 33.636719 C 120.277344 33.636719 116.886719 31.308594 113.597656 29.042969 C 109.507812 26.253906 105.292969 23.367188 97.632812 23.367188 C 84.011719 23.367188 79.054688 40.457031 79.054688 51.949219 C 79.054688 52.953125 79.136719 53.976562 79.257812 55.039062 C 79.375 56.0625 79.558594 57.105469 79.777344 58.148438 C 81.503906 66.613281 85.917969 80.414062 88.542969 88.679688 Z M 125.816406 100.355469 C 113.058594 100.355469 100.019531 98.628906 86.496094 95.179688 C 85.636719 94.957031 84.953125 94.316406 84.671875 93.472656 L 83.648438 90.246094 C 80.980469 81.898438 76.527344 67.898438 74.742188 59.191406 C 74.503906 58.007812 74.28125 56.804688 74.160156 55.640625 C 74 54.378906 73.921875 53.152344 73.921875 51.949219 C 73.921875 35.179688 82.066406 18.230469 97.632812 18.230469 C 106.898438 18.230469 112.214844 21.882812 116.488281 24.808594 C 119.253906 26.714844 121.480469 28.238281 124.210938 28.460938 C 124.449219 28.378906 124.691406 28.339844 124.953125 28.339844 C 128.019531 28.339844 130.410156 26.734375 133.417969 24.710938 C 137.691406 21.820312 143.007812 18.230469 152.253906 18.230469 C 167.820312 18.230469 175.964844 35.179688 175.964844 51.949219 C 175.964844 61.359375 170.949219 76.304688 167.257812 87.234375 C 166.476562 89.582031 165.773438 91.710938 165.210938 93.472656 C 164.953125 94.296875 164.289062 94.9375 163.445312 95.160156 C 151.089844 98.628906 138.59375 100.355469 125.816406 100.355469 " fill-opacity="1" fill-rule="nonzero"/><path fill="#daa748" d="M 185.050781 90.566406 C 192.070312 92.210938 224.105469 98.871094 253.613281 90.605469 C 256.644531 81.296875 262.640625 61.597656 262.640625 51.949219 C 262.640625 40.457031 257.988281 23.367188 245.171875 23.367188 C 237.988281 23.367188 234.015625 26.234375 230.183594 29.003906 C 227.054688 31.289062 223.804688 33.636719 219.332031 33.636719 C 218.992188 33.636719 218.691406 33.574219 218.410156 33.457031 C 214.378906 33.175781 211.371094 31.007812 208.441406 28.941406 C 204.609375 26.195312 200.636719 23.367188 193.4375 23.367188 C 180.617188 23.367188 175.964844 40.457031 175.964844 51.949219 C 175.964844 61.21875 181.460938 79.574219 185.050781 90.566406 Z M 221.257812 99.851562 C 199.996094 99.851562 183.347656 95.441406 182.304688 95.160156 C 181.582031 94.980469 180.980469 94.476562 180.65625 93.816406 C 180.519531 93.535156 180.4375 93.214844 180.398438 92.890625 C 176.003906 79.433594 170.828125 61.660156 170.828125 51.949219 C 170.828125 35.179688 178.613281 18.230469 193.4375 18.230469 C 202.28125 18.230469 207.335938 21.839844 211.429688 24.75 C 214.238281 26.753906 216.464844 28.339844 219.292969 28.339844 C 219.535156 28.339844 219.792969 28.378906 220.035156 28.460938 C 222.523438 28.21875 224.609375 26.714844 227.175781 24.851562 C 231.25 21.902344 236.324219 18.230469 245.171875 18.230469 C 260.015625 18.230469 267.777344 35.179688 267.777344 51.949219 C 267.777344 62.421875 261.699219 82.480469 258.070312 93.496094 C 257.808594 94.296875 257.164062 94.917969 256.363281 95.160156 C 244.449219 98.691406 232.25 99.851562 221.257812 99.851562 " fill-opacity="1" fill-rule="nonzero"/></svg>