<svg xmlns="http://www.w3.org/2000/svg" xmlns:xlink="http://www.w3.org/1999/xlink" width="378" zoomAndPan="magnify" viewBox="0 0 282.96 283.499989" height="378" preserveAspectRatio="xMidYMid meet" version="1.0"><defs><clipPath id="d812b2da5a"><path d="M 16.792969 66 L 227 66 L 227 280.871094 L 16.792969 280.871094 Z M 16.792969 66 " clip-rule="nonzero"/></clipPath><clipPath id="405be8f1a8"><path d="M 102 2.363281 L 266.851562 2.363281 L 266.851562 71 L 102 71 Z M 102 2.363281 " clip-rule="nonzero"/></clipPath></defs><g clip-path="url(#d812b2da5a)"><path fill="#daa748" d="M 200.445312 125.238281 C 198.246094 123.039062 195.410156 121.902344 192.359375 121.902344 C 188.953125 121.902344 185.832031 123.390625 183.632812 125.875 C 185.902344 113.746094 185.335938 101.191406 181.929688 89.34375 C 178.03125 75.792969 165.472656 66.289062 151.359375 66.289062 C 142.773438 66.289062 134.546875 68.773438 127.382812 73.523438 C 124.191406 75.652344 120.003906 75.652344 116.8125 73.523438 C 109.71875 68.773438 101.417969 66.289062 92.835938 66.289062 C 78.71875 66.289062 66.164062 75.792969 62.261719 89.34375 C 58.785156 101.472656 58.289062 114.382812 60.773438 126.796875 C 59 124.242188 56.304688 122.542969 53.183594 121.972656 C 49.492188 121.40625 45.875 122.542969 43.25 125.164062 L 25.941406 142.472656 C 20.054688 148.363281 16.792969 156.234375 16.792969 164.535156 L 16.792969 249.304688 C 16.792969 266.542969 30.765625 280.515625 48.003906 280.515625 L 195.550781 280.515625 C 212.789062 280.515625 226.761719 266.542969 226.761719 249.304688 L 226.761719 164.605469 C 226.761719 156.234375 223.5 148.433594 217.613281 142.546875 Z M 113.761719 78.277344 C 118.871094 81.683594 125.539062 81.683594 130.644531 78.277344 C 135.824219 74.871094 141.640625 72.746094 147.742188 72.175781 L 144.546875 78.632812 C 142.632812 82.460938 142.632812 87.003906 144.546875 90.832031 L 145.613281 92.960938 C 145.613281 92.960938 145.683594 93.03125 145.613281 93.101562 C 145.542969 93.171875 145.46875 93.171875 145.46875 93.171875 L 121.636719 93.171875 C 117.308594 93.171875 113.335938 95.585938 111.421875 99.488281 L 110.429688 101.472656 C 110.429688 101.542969 110.355469 101.542969 110.285156 101.542969 C 110.214844 101.542969 110.144531 101.472656 110.144531 101.472656 L 102.765625 90.621094 C 101.773438 89.128906 100.496094 87.855469 99.007812 86.789062 L 86.027344 78.136719 C 85.953125 78.0625 88.792969 72.320312 88.792969 72.320312 C 90.140625 72.105469 91.558594 71.964844 92.976562 71.964844 C 100.355469 71.964844 107.589844 74.164062 113.761719 78.277344 Z M 67.867188 90.902344 C 69.921875 83.808594 74.816406 78.0625 81.132812 74.800781 L 80.847656 75.367188 C 79.5 77.992188 80.351562 81.1875 82.832031 82.886719 L 95.886719 91.542969 C 96.738281 92.109375 97.519531 92.890625 98.085938 93.742188 L 105.390625 104.664062 C 106.527344 106.296875 108.300781 107.359375 110.214844 107.289062 C 112.484375 107.21875 114.542969 105.941406 115.464844 104.027344 L 116.457031 102.039062 C 117.449219 100.054688 119.4375 98.847656 121.566406 98.847656 L 145.398438 98.847656 C 147.457031 98.847656 149.300781 97.785156 150.363281 96.082031 C 151.429688 94.308594 151.5 92.179688 150.648438 90.40625 L 149.585938 88.277344 C 148.449219 86.082031 148.449219 83.382812 149.585938 81.113281 L 154.125 72.105469 C 164.625 73.167969 173.632812 80.617188 176.539062 90.902344 C 179.945312 102.679688 180.300781 115.304688 177.605469 127.292969 L 171.433594 154.960938 C 170.792969 157.9375 170.15625 160.917969 169.660156 163.898438 L 161.429688 213.199219 C 160.011719 221.78125 155.402344 229.300781 148.449219 234.550781 C 147.03125 235.613281 145.613281 234.976562 145.257812 234.691406 C 144.902344 234.476562 143.625 233.554688 143.910156 231.78125 C 146.320312 214.757812 141.851562 179.289062 130.574219 165.246094 C 128.515625 162.691406 125.394531 161.203125 122.132812 161.203125 C 118.796875 161.203125 115.75 162.691406 113.691406 165.246094 C 102.484375 179.289062 97.941406 214.757812 100.355469 231.78125 C 100.640625 233.554688 99.363281 234.40625 99.007812 234.691406 C 98.652344 234.902344 97.234375 235.613281 95.816406 234.550781 C 88.863281 229.371094 84.253906 221.78125 82.832031 213.199219 L 74.605469 163.898438 C 74.109375 160.917969 73.542969 157.867188 72.832031 154.960938 L 66.660156 127.292969 C 64.105469 115.304688 64.460938 102.75 67.867188 90.902344 Z M 221.230469 249.304688 C 221.230469 263.421875 209.808594 274.839844 195.691406 274.839844 L 48.144531 274.839844 C 34.03125 274.839844 22.609375 263.421875 22.609375 249.304688 L 22.609375 164.605469 C 22.609375 157.796875 25.234375 151.339844 30.058594 146.519531 L 47.367188 129.210938 C 48.714844 127.863281 50.558594 127.292969 52.402344 127.578125 C 54.246094 127.863281 55.808594 128.996094 56.660156 130.699219 C 58.644531 134.601562 61.128906 138.21875 64.105469 141.410156 L 67.371094 156.164062 C 68.007812 159.003906 68.574219 161.910156 69.074219 164.820312 L 77.300781 214.121094 C 78.933594 224.121094 84.324219 232.988281 92.480469 239.019531 C 95.320312 241.144531 98.9375 241.359375 101.988281 239.515625 C 105.035156 237.742188 106.597656 234.40625 106.101562 230.929688 C 104.964844 222.773438 105.535156 210.289062 107.589844 198.300781 C 109.929688 185.035156 113.761719 174.253906 118.230469 168.71875 C 119.222656 167.515625 120.714844 166.804688 122.273438 166.804688 C 123.835938 166.804688 125.324219 167.515625 126.316406 168.71875 C 130.714844 174.253906 134.617188 185.035156 136.957031 198.300781 C 139.085938 210.289062 139.652344 222.773438 138.449219 230.929688 C 137.953125 234.40625 139.511719 237.671875 142.5625 239.515625 C 143.910156 240.296875 145.46875 240.722656 146.960938 240.722656 C 148.734375 240.722656 150.507812 240.152344 152.066406 239.019531 C 160.152344 232.917969 165.546875 224.050781 167.246094 214.121094 L 175.476562 164.820312 C 175.972656 161.910156 176.539062 159.003906 177.179688 156.164062 L 180.65625 140.628906 C 183.351562 137.652344 185.621094 134.316406 187.394531 130.699219 C 188.386719 128.710938 190.371094 127.507812 192.570312 127.507812 C 194.132812 127.507812 195.550781 128.074219 196.617188 129.210938 L 213.921875 146.519531 C 218.746094 151.339844 221.371094 157.726562 221.371094 164.605469 L 221.371094 249.304688 Z M 221.230469 249.304688 " fill-opacity="1" fill-rule="nonzero"/></g><path fill="#daa748" d="M 155.96875 53.519531 C 155.96875 53.898438 155.898438 54.257812 155.753906 54.605469 C 155.609375 54.953125 155.402344 55.261719 155.136719 55.527344 C 154.871094 55.792969 154.566406 55.996094 154.21875 56.140625 C 153.871094 56.285156 153.507812 56.359375 153.132812 56.359375 C 152.753906 56.359375 152.394531 56.285156 152.046875 56.140625 C 151.699219 55.996094 151.390625 55.792969 151.125 55.527344 C 150.859375 55.261719 150.652344 54.953125 150.511719 54.605469 C 150.367188 54.257812 150.292969 53.898438 150.292969 53.519531 C 150.292969 53.144531 150.367188 52.78125 150.511719 52.433594 C 150.652344 52.085938 150.859375 51.78125 151.125 51.515625 C 151.390625 51.25 151.699219 51.042969 152.046875 50.898438 C 152.394531 50.753906 152.753906 50.683594 153.132812 50.683594 C 153.507812 50.683594 153.871094 50.753906 154.21875 50.898438 C 154.566406 51.042969 154.871094 51.25 155.136719 51.515625 C 155.402344 51.78125 155.609375 52.085938 155.753906 52.433594 C 155.898438 52.78125 155.96875 53.144531 155.96875 53.519531 Z M 155.96875 53.519531 " fill-opacity="1" fill-rule="nonzero"/><path fill="#daa748" d="M 172.992188 47.84375 C 172.992188 48.222656 172.921875 48.582031 172.777344 48.929688 C 172.632812 49.277344 172.429688 49.585938 172.164062 49.851562 C 171.894531 50.117188 171.589844 50.324219 171.242188 50.46875 C 170.894531 50.609375 170.53125 50.683594 170.15625 50.683594 C 169.78125 50.683594 169.417969 50.609375 169.070312 50.46875 C 168.722656 50.324219 168.414062 50.117188 168.148438 49.851562 C 167.882812 49.585938 167.679688 49.277344 167.535156 48.929688 C 167.390625 48.582031 167.320312 48.222656 167.320312 47.84375 C 167.320312 47.46875 167.390625 47.109375 167.535156 46.761719 C 167.679688 46.414062 167.882812 46.105469 168.148438 45.839844 C 168.414062 45.574219 168.722656 45.367188 169.070312 45.222656 C 169.417969 45.082031 169.78125 45.007812 170.15625 45.007812 C 170.53125 45.007812 170.894531 45.082031 171.242188 45.222656 C 171.589844 45.367188 171.894531 45.574219 172.164062 45.839844 C 172.429688 46.105469 172.632812 46.414062 172.777344 46.761719 C 172.921875 47.109375 172.992188 47.46875 172.992188 47.84375 Z M 172.992188 47.84375 " fill-opacity="1" fill-rule="nonzero"/><path fill="#daa748" d="M 190.019531 47.84375 C 190.019531 48.222656 189.945312 48.582031 189.800781 48.929688 C 189.660156 49.277344 189.453125 49.585938 189.1875 49.851562 C 188.921875 50.117188 188.613281 50.324219 188.265625 50.46875 C 187.917969 50.609375 187.558594 50.683594 187.179688 50.683594 C 186.804688 50.683594 186.441406 50.609375 186.09375 50.46875 C 185.746094 50.324219 185.441406 50.117188 185.175781 49.851562 C 184.910156 49.585938 184.703125 49.277344 184.558594 48.929688 C 184.414062 48.582031 184.34375 48.222656 184.34375 47.84375 C 184.34375 47.46875 184.414062 47.109375 184.558594 46.761719 C 184.703125 46.414062 184.910156 46.105469 185.175781 45.839844 C 185.441406 45.574219 185.746094 45.367188 186.09375 45.222656 C 186.441406 45.082031 186.804688 45.007812 187.179688 45.007812 C 187.558594 45.007812 187.917969 45.082031 188.265625 45.222656 C 188.613281 45.367188 188.921875 45.574219 189.1875 45.839844 C 189.453125 46.105469 189.660156 46.414062 189.800781 46.761719 C 189.945312 47.109375 190.019531 47.46875 190.019531 47.84375 Z M 190.019531 47.84375 " fill-opacity="1" fill-rule="nonzero"/><path fill="#daa748" d="M 138.945312 64.871094 C 138.945312 65.246094 138.871094 65.609375 138.726562 65.957031 C 138.585938 66.304688 138.378906 66.609375 138.113281 66.875 C 137.847656 67.144531 137.539062 67.347656 137.191406 67.492188 C 136.84375 67.636719 136.484375 67.707031 136.105469 67.707031 C 135.730469 67.707031 135.367188 67.636719 135.019531 67.492188 C 134.671875 67.347656 134.367188 67.144531 134.101562 66.875 C 133.835938 66.609375 133.628906 66.304688 133.484375 65.957031 C 133.339844 65.609375 133.269531 65.246094 133.269531 64.871094 C 133.269531 64.492188 133.339844 64.132812 133.484375 63.785156 C 133.628906 63.4375 133.835938 63.128906 134.101562 62.863281 C 134.367188 62.597656 134.671875 62.394531 135.019531 62.25 C 135.367188 62.105469 135.730469 62.03125 136.105469 62.03125 C 136.484375 62.03125 136.84375 62.105469 137.191406 62.25 C 137.539062 62.394531 137.847656 62.597656 138.113281 62.863281 C 138.378906 63.128906 138.585938 63.4375 138.726562 63.785156 C 138.871094 64.132812 138.945312 64.492188 138.945312 64.871094 Z M 138.945312 64.871094 " fill-opacity="1" fill-rule="nonzero"/><path fill="#daa748" d="M 93.546875 53.519531 C 93.546875 53.898438 93.472656 54.257812 93.328125 54.605469 C 93.183594 54.953125 92.980469 55.261719 92.714844 55.527344 C 92.449219 55.792969 92.140625 55.996094 91.792969 56.140625 C 91.445312 56.285156 91.085938 56.359375 90.707031 56.359375 C 90.332031 56.359375 89.96875 56.285156 89.621094 56.140625 C 89.273438 55.996094 88.96875 55.792969 88.703125 55.527344 C 88.433594 55.261719 88.230469 54.953125 88.085938 54.605469 C 87.941406 54.257812 87.871094 53.898438 87.871094 53.519531 C 87.871094 53.144531 87.941406 52.78125 88.085938 52.433594 C 88.230469 52.085938 88.433594 51.78125 88.703125 51.515625 C 88.96875 51.25 89.273438 51.042969 89.621094 50.898438 C 89.96875 50.753906 90.332031 50.683594 90.707031 50.683594 C 91.085938 50.683594 91.445312 50.753906 91.792969 50.898438 C 92.140625 51.042969 92.449219 51.25 92.714844 51.515625 C 92.980469 51.78125 93.183594 52.085938 93.328125 52.433594 C 93.472656 52.78125 93.546875 53.144531 93.546875 53.519531 Z M 93.546875 53.519531 " fill-opacity="1" fill-rule="nonzero"/><path fill="#daa748" d="M 76.519531 47.84375 C 76.519531 48.222656 76.449219 48.582031 76.304688 48.929688 C 76.160156 49.277344 75.957031 49.585938 75.691406 49.851562 C 75.421875 50.117188 75.117188 50.324219 74.769531 50.46875 C 74.421875 50.609375 74.058594 50.683594 73.683594 50.683594 C 73.308594 50.683594 72.945312 50.609375 72.597656 50.46875 C 72.25 50.324219 71.941406 50.117188 71.675781 49.851562 C 71.410156 49.585938 71.207031 49.277344 71.0625 48.929688 C 70.917969 48.582031 70.84375 48.222656 70.84375 47.84375 C 70.84375 47.46875 70.917969 47.109375 71.0625 46.761719 C 71.207031 46.414062 71.410156 46.105469 71.675781 45.839844 C 71.941406 45.574219 72.25 45.367188 72.597656 45.222656 C 72.945312 45.082031 73.308594 45.007812 73.683594 45.007812 C 74.058594 45.007812 74.421875 45.082031 74.769531 45.222656 C 75.117188 45.367188 75.421875 45.574219 75.691406 45.839844 C 75.957031 46.105469 76.160156 46.414062 76.304688 46.761719 C 76.449219 47.109375 76.519531 47.46875 76.519531 47.84375 Z M 76.519531 47.84375 " fill-opacity="1" fill-rule="nonzero"/><path fill="#daa748" d="M 59.496094 47.84375 C 59.496094 48.222656 59.425781 48.582031 59.28125 48.929688 C 59.136719 49.277344 58.929688 49.585938 58.664062 49.851562 C 58.398438 50.117188 58.09375 50.324219 57.746094 50.46875 C 57.398438 50.609375 57.035156 50.683594 56.660156 50.683594 C 56.28125 50.683594 55.921875 50.609375 55.574219 50.46875 C 55.226562 50.324219 54.917969 50.117188 54.652344 49.851562 C 54.386719 49.585938 54.179688 49.277344 54.035156 48.929688 C 53.894531 48.582031 53.820312 48.222656 53.820312 47.84375 C 53.820312 47.46875 53.894531 47.109375 54.035156 46.761719 C 54.179688 46.414062 54.386719 46.105469 54.652344 45.839844 C 54.917969 45.574219 55.226562 45.367188 55.574219 45.222656 C 55.921875 45.082031 56.28125 45.007812 56.660156 45.007812 C 57.035156 45.007812 57.398438 45.082031 57.746094 45.222656 C 58.09375 45.367188 58.398438 45.574219 58.664062 45.839844 C 58.929688 46.105469 59.136719 46.414062 59.28125 46.761719 C 59.425781 47.109375 59.496094 47.46875 59.496094 47.84375 Z M 59.496094 47.84375 " fill-opacity="1" fill-rule="nonzero"/><path fill="#daa748" d="M 110.570312 64.871094 C 110.570312 65.246094 110.496094 65.609375 110.355469 65.957031 C 110.210938 66.304688 110.003906 66.609375 109.738281 66.875 C 109.472656 67.144531 109.164062 67.347656 108.816406 67.492188 C 108.46875 67.636719 108.109375 67.707031 107.734375 67.707031 C 107.355469 67.707031 106.996094 67.636719 106.648438 67.492188 C 106.300781 67.347656 105.992188 67.144531 105.726562 66.875 C 105.460938 66.609375 105.253906 66.304688 105.109375 65.957031 C 104.96875 65.609375 104.894531 65.246094 104.894531 64.871094 C 104.894531 64.492188 104.96875 64.132812 105.109375 63.785156 C 105.253906 63.4375 105.460938 63.128906 105.726562 62.863281 C 105.992188 62.597656 106.300781 62.394531 106.648438 62.25 C 106.996094 62.105469 107.355469 62.03125 107.734375 62.03125 C 108.109375 62.03125 108.46875 62.105469 108.816406 62.25 C 109.164062 62.394531 109.472656 62.597656 109.738281 62.863281 C 110.003906 63.128906 110.210938 63.4375 110.355469 63.785156 C 110.496094 64.132812 110.570312 64.492188 110.570312 64.871094 Z M 110.570312 64.871094 " fill-opacity="1" fill-rule="nonzero"/><g clip-path="url(#405be8f1a8)"><path fill="#daa748" d="M 264.003906 10.746094 C 262.300781 9.113281 260.101562 8.261719 257.761719 8.40625 L 141.78125 13.230469 L 141.78125 10.957031 C 141.78125 6.277344 137.953125 2.445312 133.269531 2.445312 L 110.570312 2.445312 C 105.886719 2.445312 102.058594 6.277344 102.058594 10.957031 L 102.058594 33.660156 C 102.058594 38.339844 105.886719 42.171875 110.570312 42.171875 L 113.40625 42.171875 L 113.40625 47.84375 C 113.40625 50.96875 115.960938 53.519531 119.082031 53.519531 L 119.082031 67.707031 C 119.082031 69.269531 120.359375 70.546875 121.917969 70.546875 C 123.480469 70.546875 124.757812 69.269531 124.757812 67.707031 L 124.757812 53.519531 C 127.878906 53.519531 130.433594 50.96875 130.433594 47.84375 L 130.433594 42.171875 L 133.269531 42.171875 C 137.953125 42.171875 141.78125 38.339844 141.78125 33.660156 L 141.78125 31.386719 L 257.761719 36.210938 C 257.902344 36.210938 257.976562 36.210938 258.117188 36.210938 C 260.316406 36.210938 262.371094 35.359375 264.003906 33.871094 C 265.707031 32.238281 266.628906 30.039062 266.628906 27.699219 L 266.628906 16.847656 C 266.628906 14.503906 265.707031 12.378906 264.003906 10.746094 Z M 124.757812 47.84375 L 119.082031 47.84375 L 119.082031 42.171875 L 124.757812 42.171875 Z M 136.105469 33.660156 C 136.105469 35.21875 134.828125 36.496094 133.269531 36.496094 L 110.570312 36.496094 C 109.007812 36.496094 107.734375 35.21875 107.734375 33.660156 L 107.734375 10.957031 C 107.734375 9.398438 109.007812 8.121094 110.570312 8.121094 L 133.269531 8.121094 C 134.828125 8.121094 136.105469 9.398438 136.105469 10.957031 Z M 260.953125 27.769531 C 260.953125 28.550781 260.671875 29.261719 260.101562 29.828125 C 259.535156 30.394531 258.824219 30.679688 258.046875 30.609375 L 141.78125 25.714844 L 141.78125 18.832031 L 257.976562 14.007812 C 258.753906 14.007812 259.464844 14.222656 260.03125 14.789062 C 260.597656 15.355469 260.882812 16.066406 260.882812 16.847656 L 260.882812 27.769531 Z M 260.953125 27.769531 " fill-opacity="1" fill-rule="nonzero"/></g></svg>